<svg width="42" height="32" viewBox="0 0 42 32" fill="none" xmlns="http://www.w3.org/2000/svg">
<path d="M33.958 12.988C33.531 6.376 28.933 0 20.5 0C12.787 0 6.839 5.733 6.524 13.384C2.304 14.697 0 19.213 0 22.5C0 27.561 4.206 32 9 32H15.5C15.6326 32 15.7598 31.9473 15.8536 31.8536C15.9473 31.7598 16 31.6326 16 31.5C16 31.3674 15.9473 31.2402 15.8536 31.1464C15.7598 31.0527 15.6326 31 15.5 31H9C4.738 31 1 27.028 1 22.5C1 19.449 3.674 14 9 14H10.5C10.6326 14 10.7598 13.9473 10.8536 13.8536C10.9473 13.7598 11 13.6326 11 13.5C11 13.3674 10.9473 13.2402 10.8536 13.1464C10.7598 13.0527 10.6326 13 10.5 13H9C8.491 13 8.01 13.057 7.541 13.139C7.933 7.149 12.486 1 20.5 1C29.088 1 33 7.739 33 14V15.5C33 15.6326 33.0527 15.7598 33.1464 15.8536C33.2402 15.9473 33.3674 16 33.5 16C33.6326 16 33.7598 15.9473 33.8536 15.8536C33.9473 15.7598 34 15.6326 34 15.5V13.991C37.019 14.322 41 17.562 41 22.5C41 26.326 37.309 31 33 31H25.5C22.262 31 21 29.738 21 26.5V12.783L25.078 16.853C25.1241 16.9008 25.1792 16.939 25.2401 16.9653C25.3011 16.9916 25.3667 17.0054 25.4331 17.0061C25.4995 17.0068 25.5653 16.9942 25.6268 16.9692C25.6883 16.9441 25.7442 16.9071 25.7912 16.8602C25.8382 16.8133 25.8754 16.7575 25.9006 16.6961C25.9258 16.6347 25.9386 16.5689 25.9381 16.5025C25.9376 16.4361 25.9239 16.3705 25.8978 16.3095C25.8717 16.2484 25.8337 16.1932 25.786 16.147L21.325 11.695C20.731 11.103 20.27 11.103 19.677 11.695L15.216 16.147C15.1249 16.2413 15.0745 16.3676 15.0757 16.4987C15.0768 16.6298 15.1294 16.7552 15.2221 16.8479C15.3148 16.9406 15.4402 16.9932 15.5713 16.9943C15.7024 16.9955 15.8287 16.9451 15.923 16.854L20 12.783V26.5C20 30.304 21.696 32 25.5 32H33C37.847 32 42 26.776 42 22.5C42 17.333 37.777 13.292 33.958 12.988Z" fill="black"/>
</svg>
