<svg width="1131" height="465" viewBox="0 0 1131 465" fill="none" xmlns="http://www.w3.org/2000/svg">
<g clip-path="url(#clip0_925_2068)" filter="url(#filter0_d_925_2068)">
<rect width="1123" height="44" transform="translate(4)" fill="#868686"/>
<rect x="4" width="1123" height="44" fill="#738092"/>
<path d="M37.3878 14.4545V29H35.044L28.1903 19.0923H28.0696V29H25.4347V14.4545H27.7926L34.6392 24.3693H34.767V14.4545H37.3878ZM43.2844 29.2202C42.5932 29.2202 41.9705 29.0971 41.4165 28.8509C40.8673 28.5999 40.4317 28.2306 40.1097 27.7429C39.7925 27.2552 39.6339 26.6539 39.6339 25.9389C39.6339 25.3234 39.7475 24.8144 39.9748 24.4119C40.2021 24.0095 40.5122 23.6875 40.9052 23.446C41.2982 23.2045 41.7409 23.0223 42.2333 22.8991C42.7305 22.7713 43.2442 22.679 43.7745 22.6222C44.4137 22.5559 44.9322 22.4967 45.3299 22.4446C45.7276 22.3878 46.0165 22.3026 46.1964 22.1889C46.381 22.0705 46.4734 21.8883 46.4734 21.642V21.5994C46.4734 21.0644 46.3147 20.6501 45.9975 20.3565C45.6803 20.063 45.2234 19.9162 44.6268 19.9162C43.997 19.9162 43.4975 20.0535 43.1282 20.3281C42.7636 20.6027 42.5174 20.9271 42.3896 21.3011L39.989 20.9602C40.1784 20.2973 40.4909 19.7434 40.9265 19.2983C41.3621 18.8485 41.8948 18.5123 42.5245 18.2898C43.1542 18.0625 43.8503 17.9489 44.6126 17.9489C45.1381 17.9489 45.6613 18.0104 46.1822 18.1335C46.703 18.2566 47.1789 18.4602 47.6097 18.7443C48.0406 19.0237 48.3862 19.4048 48.6467 19.8878C48.9118 20.3707 49.0444 20.9744 49.0444 21.6989V29H46.5728V27.5014H46.4876C46.3313 27.8045 46.1112 28.0885 45.8271 28.3537C45.5477 28.6141 45.195 28.8248 44.7688 28.9858C44.3474 29.142 43.8526 29.2202 43.2844 29.2202ZM43.9521 27.331C44.4682 27.331 44.9156 27.2292 45.2944 27.0256C45.6732 26.8172 45.9644 26.5426 46.168 26.2017C46.3763 25.8608 46.4805 25.4891 46.4805 25.0866V23.8011C46.4 23.8674 46.2627 23.929 46.0685 23.9858C45.8791 24.0426 45.6661 24.0923 45.4293 24.1349C45.1926 24.1776 44.9582 24.2154 44.7262 24.2486C44.4942 24.2817 44.293 24.3101 44.1225 24.3338C43.739 24.3859 43.3957 24.4711 43.0927 24.5895C42.7897 24.7079 42.5505 24.8736 42.3754 25.0866C42.2002 25.295 42.1126 25.5649 42.1126 25.8963C42.1126 26.3698 42.2854 26.7273 42.631 26.9688C42.9767 27.2102 43.417 27.331 43.9521 27.331ZM54.7688 29.2202C54.0775 29.2202 53.4549 29.0971 52.9009 28.8509C52.3517 28.5999 51.9161 28.2306 51.5941 27.7429C51.2769 27.2552 51.1183 26.6539 51.1183 25.9389C51.1183 25.3234 51.2319 24.8144 51.4592 24.4119C51.6864 24.0095 51.9966 23.6875 52.3896 23.446C52.7826 23.2045 53.2253 23.0223 53.7177 22.8991C54.2148 22.7713 54.7286 22.679 55.2589 22.6222C55.8981 22.5559 56.4165 22.4967 56.8143 22.4446C57.212 22.3878 57.5008 22.3026 57.6808 22.1889C57.8654 22.0705 57.9577 21.8883 57.9577 21.642V21.5994C57.9577 21.0644 57.7991 20.6501 57.4819 20.3565C57.1647 20.063 56.7077 19.9162 56.1112 19.9162C55.4814 19.9162 54.9819 20.0535 54.6126 20.3281C54.248 20.6027 54.0018 20.9271 53.8739 21.3011L51.4734 20.9602C51.6628 20.2973 51.9753 19.7434 52.4109 19.2983C52.8465 18.8485 53.3791 18.5123 54.0089 18.2898C54.6386 18.0625 55.3346 17.9489 56.0969 17.9489C56.6225 17.9489 57.1457 18.0104 57.6665 18.1335C58.1874 18.2566 58.6632 18.4602 59.0941 18.7443C59.525 19.0237 59.8706 19.4048 60.131 19.8878C60.3962 20.3707 60.5288 20.9744 60.5288 21.6989V29H58.0572V27.5014H57.9719C57.8157 27.8045 57.5955 28.0885 57.3114 28.3537C57.0321 28.6141 56.6793 28.8248 56.2532 28.9858C55.8318 29.142 55.337 29.2202 54.7688 29.2202ZM55.4364 27.331C55.9525 27.331 56.4 27.2292 56.7788 27.0256C57.1576 26.8172 57.4487 26.5426 57.6523 26.2017C57.8607 25.8608 57.9648 25.4891 57.9648 25.0866V23.8011C57.8844 23.8674 57.747 23.929 57.5529 23.9858C57.3635 24.0426 57.1504 24.0923 56.9137 24.1349C56.677 24.1776 56.4426 24.2154 56.2106 24.2486C55.9786 24.2817 55.7773 24.3101 55.6069 24.3338C55.2234 24.3859 54.8801 24.4711 54.5771 24.5895C54.274 24.7079 54.0349 24.8736 53.8597 25.0866C53.6845 25.295 53.5969 25.5649 53.5969 25.8963C53.5969 26.3698 53.7698 26.7273 54.1154 26.9688C54.4611 27.2102 54.9014 27.331 55.4364 27.331ZM63.114 29V18.0909H65.5714V19.9446H65.6992C65.9265 19.3196 66.3029 18.8319 66.8285 18.4815C67.354 18.1264 67.9814 17.9489 68.7106 17.9489C69.4492 17.9489 70.0719 18.1288 70.5785 18.4886C71.0898 18.8437 71.4497 19.3291 71.658 19.9446H71.7717C72.0131 19.3385 72.4203 18.8556 72.9933 18.4957C73.5709 18.1312 74.2551 17.9489 75.0458 17.9489C76.0496 17.9489 76.8687 18.2661 77.5032 18.9006C78.1377 19.535 78.4549 20.4607 78.4549 21.6776V29H75.8768V22.0753C75.8768 21.3982 75.6969 20.9034 75.337 20.5909C74.9772 20.2737 74.5368 20.1151 74.016 20.1151C73.3957 20.1151 72.9104 20.3092 72.56 20.6974C72.2144 21.081 72.0415 21.5805 72.0415 22.196V29H69.5202V21.9688C69.5202 21.4053 69.3498 20.9555 69.0089 20.6193C68.6727 20.2831 68.2324 20.1151 67.6879 20.1151C67.3185 20.1151 66.9824 20.2098 66.6793 20.3991C66.3763 20.5838 66.1348 20.8466 65.9549 21.1875C65.775 21.5237 65.685 21.9167 65.685 22.3665V29H63.114ZM82.647 29.1562C82.2161 29.1562 81.8468 29.0047 81.5391 28.7017C81.2313 28.3987 81.0798 28.0294 81.0845 27.5938C81.0798 27.1676 81.2313 26.803 81.5391 26.5C81.8468 26.197 82.2161 26.0455 82.647 26.0455C83.0637 26.0455 83.4259 26.197 83.7337 26.5C84.0462 26.803 84.2048 27.1676 84.2095 27.5938C84.2048 27.8826 84.129 28.1454 83.9822 28.3821C83.8402 28.6188 83.6508 28.8082 83.4141 28.9503C83.1821 29.0876 82.9264 29.1562 82.647 29.1562ZM82.647 21.3722C82.2161 21.3722 81.8468 21.2206 81.5391 20.9176C81.2313 20.6098 81.0798 20.2405 81.0845 19.8097C81.0798 19.3835 81.2313 19.0189 81.5391 18.7159C81.8468 18.4081 82.2161 18.2543 82.647 18.2543C83.0637 18.2543 83.4259 18.4081 83.7337 18.7159C84.0462 19.0189 84.2048 19.3835 84.2095 19.8097C84.2048 20.0937 84.129 20.3542 83.9822 20.5909C83.8402 20.8277 83.6508 21.017 83.4141 21.1591C83.1821 21.3011 82.9264 21.3722 82.647 21.3722Z" fill="white"/>
<path d="M96.9659 16.017V14.4545H107.875V16.017H103.301V29H101.54V16.017H96.9659ZM113.216 29.2273C112.231 29.2273 111.367 28.9929 110.624 28.5241C109.885 28.0554 109.307 27.3996 108.891 26.5568C108.479 25.714 108.273 24.7292 108.273 23.6023C108.273 22.4659 108.479 21.474 108.891 20.6264C109.307 19.7789 109.885 19.1207 110.624 18.652C111.367 18.1832 112.231 17.9489 113.216 17.9489C114.201 17.9489 115.063 18.1832 115.801 18.652C116.545 19.1207 117.122 19.7789 117.534 20.6264C117.951 21.474 118.159 22.4659 118.159 23.6023C118.159 24.7292 117.951 25.714 117.534 26.5568C117.122 27.3996 116.545 28.0554 115.801 28.5241C115.063 28.9929 114.201 29.2273 113.216 29.2273ZM113.216 27.7216C113.964 27.7216 114.58 27.5298 115.062 27.1463C115.545 26.7628 115.903 26.2585 116.135 25.6335C116.367 25.0085 116.483 24.3314 116.483 23.6023C116.483 22.8731 116.367 22.1937 116.135 21.5639C115.903 20.9342 115.545 20.4252 115.062 20.0369C114.58 19.6487 113.964 19.4545 113.216 19.4545C112.468 19.4545 111.852 19.6487 111.369 20.0369C110.886 20.4252 110.529 20.9342 110.297 21.5639C110.065 22.1937 109.949 22.8731 109.949 23.6023C109.949 24.3314 110.065 25.0085 110.297 25.6335C110.529 26.2585 110.886 26.7628 111.369 27.1463C111.852 27.5298 112.468 27.7216 113.216 27.7216ZM125.462 18.0909V19.5114H119.809V18.0909H125.462ZM121.456 15.4773H123.132V25.875C123.132 26.3485 123.201 26.7036 123.338 26.9403C123.48 27.1723 123.66 27.3286 123.878 27.4091C124.101 27.4848 124.335 27.5227 124.581 27.5227C124.766 27.5227 124.917 27.5133 125.036 27.4943C125.154 27.4706 125.249 27.4517 125.32 27.4375L125.661 28.9432C125.547 28.9858 125.389 29.0284 125.185 29.071C124.981 29.1184 124.723 29.142 124.411 29.142C123.937 29.142 123.473 29.0402 123.019 28.8366C122.569 28.633 122.195 28.3229 121.897 27.9062C121.603 27.4896 121.456 26.964 121.456 26.3295V15.4773ZM131.194 29.2557C130.502 29.2557 129.875 29.1255 129.311 28.8651C128.748 28.5999 128.301 28.2188 127.969 27.7216C127.638 27.2197 127.472 26.6136 127.472 25.9034C127.472 25.2784 127.595 24.7718 127.841 24.3835C128.087 23.9905 128.417 23.6828 128.828 23.4602C129.24 23.2377 129.695 23.072 130.192 22.9631C130.694 22.8494 131.198 22.7595 131.705 22.6932C132.368 22.608 132.905 22.544 133.317 22.5014C133.734 22.4541 134.037 22.3759 134.226 22.267C134.42 22.1581 134.517 21.9687 134.517 21.6989V21.642C134.517 20.9413 134.326 20.3968 133.942 20.0085C133.563 19.6203 132.988 19.4261 132.216 19.4261C131.416 19.4261 130.789 19.6013 130.334 19.9517C129.88 20.3021 129.56 20.6761 129.375 21.0739L127.784 20.5057C128.069 19.8428 128.447 19.3267 128.921 18.9574C129.399 18.5833 129.92 18.3229 130.483 18.1761C131.051 18.0246 131.61 17.9489 132.159 17.9489C132.51 17.9489 132.912 17.9915 133.367 18.0767C133.826 18.1572 134.269 18.3253 134.695 18.581C135.126 18.8366 135.483 19.2225 135.767 19.7386C136.051 20.2547 136.194 20.946 136.194 21.8125V29H134.517V27.5227H134.432C134.319 27.7595 134.129 28.0128 133.864 28.2827C133.599 28.5526 133.246 28.7822 132.806 28.9716C132.365 29.161 131.828 29.2557 131.194 29.2557ZM131.449 27.75C132.112 27.75 132.671 27.6198 133.125 27.3594C133.585 27.099 133.93 26.7628 134.162 26.3509C134.399 25.9389 134.517 25.5057 134.517 25.0511V23.517C134.446 23.6023 134.29 23.6804 134.049 23.7514C133.812 23.8177 133.537 23.8769 133.225 23.929C132.917 23.9763 132.616 24.0189 132.323 24.0568C132.034 24.09 131.8 24.1184 131.62 24.142C131.184 24.1989 130.777 24.2912 130.398 24.419C130.024 24.5421 129.721 24.7292 129.489 24.9801C129.262 25.2263 129.148 25.5625 129.148 25.9886C129.148 26.571 129.364 27.0114 129.794 27.3097C130.23 27.6032 130.782 27.75 131.449 27.75ZM142.463 29.2557C141.772 29.2557 141.144 29.1255 140.581 28.8651C140.018 28.5999 139.57 28.2188 139.239 27.7216C138.907 27.2197 138.741 26.6136 138.741 25.9034C138.741 25.2784 138.865 24.7718 139.111 24.3835C139.357 23.9905 139.686 23.6828 140.098 23.4602C140.51 23.2377 140.964 23.072 141.462 22.9631C141.964 22.8494 142.468 22.7595 142.974 22.6932C143.637 22.608 144.175 22.544 144.587 22.5014C145.003 22.4541 145.306 22.3759 145.496 22.267C145.69 22.1581 145.787 21.9687 145.787 21.6989V21.642C145.787 20.9413 145.595 20.3968 145.212 20.0085C144.833 19.6203 144.258 19.4261 143.486 19.4261C142.686 19.4261 142.058 19.6013 141.604 19.9517C141.149 20.3021 140.83 20.6761 140.645 21.0739L139.054 20.5057C139.338 19.8428 139.717 19.3267 140.19 18.9574C140.669 18.5833 141.189 18.3229 141.753 18.1761C142.321 18.0246 142.88 17.9489 143.429 17.9489C143.779 17.9489 144.182 17.9915 144.636 18.0767C145.096 18.1572 145.538 18.3253 145.964 18.581C146.395 18.8366 146.753 19.2225 147.037 19.7386C147.321 20.2547 147.463 20.946 147.463 21.8125V29H145.787V27.5227H145.702C145.588 27.7595 145.399 28.0128 145.134 28.2827C144.868 28.5526 144.516 28.7822 144.075 28.9716C143.635 29.161 143.098 29.2557 142.463 29.2557ZM142.719 27.75C143.382 27.75 143.94 27.6198 144.395 27.3594C144.854 27.099 145.2 26.7628 145.432 26.3509C145.669 25.9389 145.787 25.5057 145.787 25.0511V23.517C145.716 23.6023 145.56 23.6804 145.318 23.7514C145.081 23.8177 144.807 23.8769 144.494 23.929C144.187 23.9763 143.886 24.0189 143.592 24.0568C143.304 24.09 143.069 24.1184 142.889 24.142C142.454 24.1989 142.046 24.2912 141.668 24.419C141.294 24.5421 140.991 24.7292 140.759 24.9801C140.531 25.2263 140.418 25.5625 140.418 25.9886C140.418 26.571 140.633 27.0114 141.064 27.3097C141.5 27.6032 142.051 27.75 142.719 27.75ZM152.199 14.4545V29H150.522V14.4545H152.199ZM164.104 29.2557C163.412 29.2557 162.785 29.1255 162.222 28.8651C161.658 28.5999 161.211 28.2188 160.879 27.7216C160.548 27.2197 160.382 26.6136 160.382 25.9034C160.382 25.2784 160.505 24.7718 160.751 24.3835C160.998 23.9905 161.327 23.6828 161.739 23.4602C162.151 23.2377 162.605 23.072 163.102 22.9631C163.604 22.8494 164.108 22.7595 164.615 22.6932C165.278 22.608 165.815 22.544 166.227 22.5014C166.644 22.4541 166.947 22.3759 167.136 22.267C167.33 22.1581 167.428 21.9687 167.428 21.6989V21.642C167.428 20.9413 167.236 20.3968 166.852 20.0085C166.473 19.6203 165.898 19.4261 165.126 19.4261C164.326 19.4261 163.699 19.6013 163.244 19.9517C162.79 20.3021 162.47 20.6761 162.286 21.0739L160.695 20.5057C160.979 19.8428 161.357 19.3267 161.831 18.9574C162.309 18.5833 162.83 18.3229 163.393 18.1761C163.962 18.0246 164.52 17.9489 165.07 17.9489C165.42 17.9489 165.822 17.9915 166.277 18.0767C166.736 18.1572 167.179 18.3253 167.605 18.581C168.036 18.8366 168.393 19.2225 168.678 19.7386C168.962 20.2547 169.104 20.946 169.104 21.8125V29H167.428V27.5227H167.342C167.229 27.7595 167.039 28.0128 166.774 28.2827C166.509 28.5526 166.156 28.7822 165.716 28.9716C165.276 29.161 164.738 29.2557 164.104 29.2557ZM164.359 27.75C165.022 27.75 165.581 27.6198 166.036 27.3594C166.495 27.099 166.84 26.7628 167.072 26.3509C167.309 25.9389 167.428 25.5057 167.428 25.0511V23.517C167.357 23.6023 167.2 23.6804 166.959 23.7514C166.722 23.8177 166.447 23.8769 166.135 23.929C165.827 23.9763 165.527 24.0189 165.233 24.0568C164.944 24.09 164.71 24.1184 164.53 24.142C164.094 24.1989 163.687 24.2912 163.308 24.419C162.934 24.5421 162.631 24.7292 162.399 24.9801C162.172 25.2263 162.058 25.5625 162.058 25.9886C162.058 26.571 162.274 27.0114 162.705 27.3097C163.14 27.6032 163.692 27.75 164.359 27.75ZM175.373 29.2557C174.682 29.2557 174.055 29.1255 173.491 28.8651C172.928 28.5999 172.48 28.2188 172.149 27.7216C171.817 27.2197 171.652 26.6136 171.652 25.9034C171.652 25.2784 171.775 24.7718 172.021 24.3835C172.267 23.9905 172.596 23.6828 173.008 23.4602C173.42 23.2377 173.875 23.072 174.372 22.9631C174.874 22.8494 175.378 22.7595 175.885 22.6932C176.547 22.608 177.085 22.544 177.497 22.5014C177.913 22.4541 178.217 22.3759 178.406 22.267C178.6 22.1581 178.697 21.9687 178.697 21.6989V21.642C178.697 20.9413 178.505 20.3968 178.122 20.0085C177.743 19.6203 177.168 19.4261 176.396 19.4261C175.596 19.4261 174.968 19.6013 174.514 19.9517C174.059 20.3021 173.74 20.6761 173.555 21.0739L171.964 20.5057C172.248 19.8428 172.627 19.3267 173.1 18.9574C173.579 18.5833 174.1 18.3229 174.663 18.1761C175.231 18.0246 175.79 17.9489 176.339 17.9489C176.69 17.9489 177.092 17.9915 177.547 18.0767C178.006 18.1572 178.449 18.3253 178.875 18.581C179.306 18.8366 179.663 19.2225 179.947 19.7386C180.231 20.2547 180.373 20.946 180.373 21.8125V29H178.697V27.5227H178.612C178.498 27.7595 178.309 28.0128 178.044 28.2827C177.779 28.5526 177.426 28.7822 176.985 28.9716C176.545 29.161 176.008 29.2557 175.373 29.2557ZM175.629 27.75C176.292 27.75 176.85 27.6198 177.305 27.3594C177.764 27.099 178.11 26.7628 178.342 26.3509C178.579 25.9389 178.697 25.5057 178.697 25.0511V23.517C178.626 23.6023 178.47 23.6804 178.228 23.7514C177.992 23.8177 177.717 23.8769 177.404 23.929C177.097 23.9763 176.796 24.0189 176.502 24.0568C176.214 24.09 175.979 24.1184 175.799 24.142C175.364 24.1989 174.957 24.2912 174.578 24.419C174.204 24.5421 173.901 24.7292 173.669 24.9801C173.441 25.2263 173.328 25.5625 173.328 25.9886C173.328 26.571 173.543 27.0114 173.974 27.3097C174.41 27.6032 174.961 27.75 175.629 27.75ZM185.109 22.4375V29H183.433V18.0909H185.052V19.7955H185.194C185.45 19.2415 185.838 18.7964 186.359 18.4602C186.879 18.1193 187.552 17.9489 188.376 17.9489C189.114 17.9489 189.761 18.1004 190.315 18.4034C190.869 18.7017 191.299 19.1562 191.607 19.767C191.915 20.3731 192.069 21.1402 192.069 22.0682V29H190.393V22.1818C190.393 21.3248 190.17 20.6572 189.725 20.179C189.28 19.696 188.669 19.4545 187.893 19.4545C187.358 19.4545 186.879 19.5705 186.458 19.8026C186.041 20.0346 185.712 20.3731 185.471 20.8182C185.229 21.2633 185.109 21.803 185.109 22.4375ZM199.876 18.0909V19.5114H194.223V18.0909H199.876ZM195.87 15.4773H197.547V25.875C197.547 26.3485 197.615 26.7036 197.752 26.9403C197.895 27.1723 198.074 27.3286 198.292 27.4091C198.515 27.4848 198.749 27.5227 198.995 27.5227C199.18 27.5227 199.332 27.5133 199.45 27.4943C199.568 27.4706 199.663 27.4517 199.734 27.4375L200.075 28.9432C199.961 28.9858 199.803 29.0284 199.599 29.071C199.395 29.1184 199.137 29.142 198.825 29.142C198.351 29.142 197.887 29.0402 197.433 28.8366C196.983 28.633 196.609 28.3229 196.311 27.9062C196.017 27.4896 195.87 26.964 195.87 26.3295V15.4773ZM205.608 29.2557C204.916 29.2557 204.289 29.1255 203.725 28.8651C203.162 28.5999 202.715 28.2188 202.383 27.7216C202.052 27.2197 201.886 26.6136 201.886 25.9034C201.886 25.2784 202.009 24.7718 202.255 24.3835C202.502 23.9905 202.831 23.6828 203.243 23.4602C203.654 23.2377 204.109 23.072 204.606 22.9631C205.108 22.8494 205.612 22.7595 206.119 22.6932C206.782 22.608 207.319 22.544 207.731 22.5014C208.148 22.4541 208.451 22.3759 208.64 22.267C208.834 22.1581 208.931 21.9687 208.931 21.6989V21.642C208.931 20.9413 208.74 20.3968 208.356 20.0085C207.977 19.6203 207.402 19.4261 206.63 19.4261C205.83 19.4261 205.203 19.6013 204.748 19.9517C204.294 20.3021 203.974 20.6761 203.789 21.0739L202.199 20.5057C202.483 19.8428 202.861 19.3267 203.335 18.9574C203.813 18.5833 204.334 18.3229 204.897 18.1761C205.466 18.0246 206.024 17.9489 206.574 17.9489C206.924 17.9489 207.326 17.9915 207.781 18.0767C208.24 18.1572 208.683 18.3253 209.109 18.581C209.54 18.8366 209.897 19.2225 210.181 19.7386C210.466 20.2547 210.608 20.946 210.608 21.8125V29H208.931V27.5227H208.846C208.733 27.7595 208.543 28.0128 208.278 28.2827C208.013 28.5526 207.66 28.7822 207.22 28.9716C206.779 29.161 206.242 29.2557 205.608 29.2557ZM205.863 27.75C206.526 27.75 207.085 27.6198 207.539 27.3594C207.999 27.099 208.344 26.7628 208.576 26.3509C208.813 25.9389 208.931 25.5057 208.931 25.0511V23.517C208.86 23.6023 208.704 23.6804 208.463 23.7514C208.226 23.8177 207.951 23.8769 207.639 23.929C207.331 23.9763 207.03 24.0189 206.737 24.0568C206.448 24.09 206.214 24.1184 206.034 24.142C205.598 24.1989 205.191 24.2912 204.812 24.419C204.438 24.5421 204.135 24.7292 203.903 24.9801C203.676 25.2263 203.562 25.5625 203.562 25.9886C203.562 26.571 203.778 27.0114 204.208 27.3097C204.644 27.6032 205.196 27.75 205.863 27.75ZM215.343 14.4545V29H213.667V14.4545H215.343Z" fill="white"/>
</g>
<path d="M789 61H1107C1118.05 61 1127 69.9543 1127 81V115C1127 126.046 1118.05 135 1107 135H789V61Z" fill="#EDEDED"/>
<path d="M4 81C4 69.9543 12.9543 61 24 61H789V135H24C12.9543 135 4 126.046 4 115V81Z" fill="#00A9F3"/>
<path d="M371.463 105.199C370.407 105.199 369.47 105.021 368.651 104.666C367.836 104.311 367.197 103.826 366.733 103.21C366.274 102.59 366.046 101.887 366.051 101.101C366.046 100.49 366.179 99.929 366.449 99.4176C366.719 98.9062 367.083 98.4801 367.543 98.1392C368.007 97.7936 368.523 97.5734 369.091 97.4787V97.3793C368.343 97.2135 367.737 96.8324 367.273 96.2358C366.813 95.6345 366.586 94.9408 366.591 94.1548C366.586 93.4067 366.795 92.7391 367.216 92.152C367.637 91.5649 368.215 91.1032 368.949 90.767C369.683 90.4261 370.521 90.2557 371.463 90.2557C372.396 90.2557 373.227 90.4261 373.956 90.767C374.69 91.1032 375.268 91.5649 375.689 92.152C376.115 92.7391 376.328 93.4067 376.328 94.1548C376.328 94.9408 376.094 95.6345 375.625 96.2358C375.161 96.8324 374.562 97.2135 373.828 97.3793V97.4787C374.396 97.5734 374.908 97.7936 375.362 98.1392C375.821 98.4801 376.186 98.9062 376.456 99.4176C376.731 99.929 376.868 100.49 376.868 101.101C376.868 101.887 376.636 102.59 376.172 103.21C375.708 103.826 375.069 104.311 374.254 104.666C373.445 105.021 372.514 105.199 371.463 105.199ZM371.463 103.168C372.008 103.168 372.481 103.075 372.884 102.891C373.286 102.701 373.598 102.436 373.821 102.095C374.044 101.754 374.157 101.361 374.162 100.916C374.157 100.452 374.036 100.043 373.8 99.6875C373.568 99.3277 373.248 99.0459 372.841 98.8423C372.438 98.6387 371.979 98.5369 371.463 98.5369C370.942 98.5369 370.478 98.6387 370.071 98.8423C369.664 99.0459 369.342 99.3277 369.105 99.6875C368.873 100.043 368.759 100.452 368.764 100.916C368.759 101.361 368.868 101.754 369.091 102.095C369.313 102.431 369.626 102.694 370.028 102.884C370.436 103.073 370.914 103.168 371.463 103.168ZM371.463 96.5412C371.908 96.5412 372.301 96.4512 372.642 96.2713C372.988 96.0914 373.26 95.8404 373.459 95.5185C373.658 95.1965 373.759 94.8248 373.764 94.4034C373.759 93.9867 373.66 93.6222 373.466 93.3097C373.272 92.9924 373.002 92.7486 372.656 92.5781C372.311 92.4029 371.913 92.3153 371.463 92.3153C371.004 92.3153 370.599 92.4029 370.249 92.5781C369.903 92.7486 369.633 92.9924 369.439 93.3097C369.25 93.6222 369.157 93.9867 369.162 94.4034C369.157 94.8248 369.252 95.1965 369.446 95.5185C369.645 95.8357 369.917 96.0866 370.263 96.2713C370.613 96.4512 371.013 96.5412 371.463 96.5412ZM384.26 105.199C383.313 105.199 382.465 105.021 381.717 104.666C380.969 104.306 380.375 103.814 379.934 103.189C379.499 102.564 379.267 101.849 379.238 101.044H381.795C381.842 101.641 382.1 102.128 382.569 102.507C383.038 102.881 383.601 103.068 384.26 103.068C384.776 103.068 385.235 102.95 385.637 102.713C386.04 102.476 386.357 102.147 386.589 101.726C386.821 101.304 386.935 100.824 386.93 100.284C386.935 99.7348 386.819 99.2472 386.582 98.821C386.345 98.3949 386.021 98.0611 385.609 97.8196C385.197 97.5734 384.724 97.4503 384.189 97.4503C383.753 97.4455 383.324 97.526 382.903 97.6918C382.482 97.8575 382.148 98.0753 381.902 98.3452L379.522 97.9545L380.282 90.4545H388.72V92.6562H382.463L382.044 96.5128H382.129C382.399 96.1955 382.78 95.9328 383.272 95.7244C383.765 95.5114 384.305 95.4048 384.892 95.4048C385.772 95.4048 386.558 95.6132 387.25 96.0298C387.941 96.4418 388.485 97.0099 388.883 97.7344C389.281 98.4588 389.48 99.2874 389.48 100.22C389.48 101.181 389.257 102.038 388.812 102.791C388.372 103.539 387.759 104.129 386.973 104.56C386.191 104.986 385.287 105.199 384.26 105.199ZM397.235 105.277C396.066 105.277 395.062 104.981 394.224 104.389C393.391 103.793 392.749 102.933 392.299 101.811C391.854 100.684 391.632 99.3277 391.632 97.7415C391.636 96.1553 391.861 94.8059 392.306 93.6932C392.756 92.5758 393.398 91.7235 394.231 91.1364C395.069 90.5492 396.071 90.2557 397.235 90.2557C398.4 90.2557 399.402 90.5492 400.24 91.1364C401.078 91.7235 401.719 92.5758 402.164 93.6932C402.614 94.8106 402.839 96.16 402.839 97.7415C402.839 99.3324 402.614 100.691 402.164 101.818C401.719 102.94 401.078 103.797 400.24 104.389C399.406 104.981 398.405 105.277 397.235 105.277ZM397.235 103.054C398.145 103.054 398.862 102.607 399.387 101.712C399.918 100.812 400.183 99.4886 400.183 97.7415C400.183 96.5862 400.062 95.6155 399.821 94.8295C399.579 94.0436 399.238 93.4517 398.798 93.054C398.358 92.6515 397.837 92.4503 397.235 92.4503C396.331 92.4503 395.616 92.9001 395.091 93.7997C394.565 94.6946 394.3 96.0085 394.295 97.7415C394.29 98.9015 394.406 99.8769 394.643 100.668C394.885 101.458 395.225 102.055 395.666 102.457C396.106 102.855 396.629 103.054 397.235 103.054ZM410.575 105.277C409.406 105.277 408.402 104.981 407.564 104.389C406.731 103.793 406.089 102.933 405.639 101.811C405.194 100.684 404.972 99.3277 404.972 97.7415C404.976 96.1553 405.201 94.8059 405.646 93.6932C406.096 92.5758 406.738 91.7235 407.571 91.1364C408.409 90.5492 409.411 90.2557 410.575 90.2557C411.74 90.2557 412.741 90.5492 413.58 91.1364C414.418 91.7235 415.059 92.5758 415.504 93.6932C415.954 94.8106 416.179 96.16 416.179 97.7415C416.179 99.3324 415.954 100.691 415.504 101.818C415.059 102.94 414.418 103.797 413.58 104.389C412.746 104.981 411.745 105.277 410.575 105.277ZM410.575 103.054C411.484 103.054 412.202 102.607 412.727 101.712C413.258 100.812 413.523 99.4886 413.523 97.7415C413.523 96.5862 413.402 95.6155 413.161 94.8295C412.919 94.0436 412.578 93.4517 412.138 93.054C411.697 92.6515 411.177 92.4503 410.575 92.4503C409.671 92.4503 408.956 92.9001 408.43 93.7997C407.905 94.6946 407.64 96.0085 407.635 97.7415C407.63 98.9015 407.746 99.8769 407.983 100.668C408.224 101.458 408.565 102.055 409.006 102.457C409.446 102.855 409.969 103.054 410.575 103.054Z" fill="white"/>
<path d="M934.933 96.669V98.7855H928.385V96.669H934.933ZM943.525 90.4545V105H940.89V93.0185H940.805L937.403 95.1918V92.777L941.018 90.4545H943.525ZM952.275 105.199C951.328 105.199 950.481 105.021 949.733 104.666C948.984 104.306 948.39 103.814 947.95 103.189C947.514 102.564 947.282 101.849 947.254 101.044H949.811C949.858 101.641 950.116 102.128 950.585 102.507C951.054 102.881 951.617 103.068 952.275 103.068C952.791 103.068 953.251 102.95 953.653 102.713C954.056 102.476 954.373 102.147 954.605 101.726C954.837 101.304 954.95 100.824 954.946 100.284C954.95 99.7348 954.834 99.2472 954.598 98.821C954.361 98.3949 954.037 98.0611 953.625 97.8196C953.213 97.5734 952.739 97.4503 952.204 97.4503C951.769 97.4455 951.34 97.526 950.919 97.6918C950.497 97.8575 950.163 98.0753 949.917 98.3452L947.538 97.9545L948.298 90.4545H956.735V92.6562H950.478L950.059 96.5128H950.145C950.414 96.1955 950.796 95.9328 951.288 95.7244C951.78 95.5114 952.32 95.4048 952.907 95.4048C953.788 95.4048 954.574 95.6132 955.265 96.0298C955.957 96.4418 956.501 97.0099 956.899 97.7344C957.297 98.4588 957.495 99.2874 957.495 100.22C957.495 101.181 957.273 102.038 956.828 102.791C956.387 103.539 955.774 104.129 954.988 104.56C954.207 104.986 953.303 105.199 952.275 105.199ZM965.251 105.277C964.082 105.277 963.078 104.981 962.24 104.389C961.406 103.793 960.765 102.933 960.315 101.811C959.87 100.684 959.647 99.3277 959.647 97.7415C959.652 96.1553 959.877 94.8059 960.322 93.6932C960.772 92.5758 961.413 91.7235 962.247 91.1364C963.085 90.5492 964.086 90.2557 965.251 90.2557C966.416 90.2557 967.417 90.5492 968.255 91.1364C969.093 91.7235 969.735 92.5758 970.18 93.6932C970.63 94.8106 970.855 96.16 970.855 97.7415C970.855 99.3324 970.63 100.691 970.18 101.818C969.735 102.94 969.093 103.797 968.255 104.389C967.422 104.981 966.421 105.277 965.251 105.277ZM965.251 103.054C966.16 103.054 966.877 102.607 967.403 101.712C967.933 100.812 968.199 99.4886 968.199 97.7415C968.199 96.5862 968.078 95.6155 967.836 94.8295C967.595 94.0436 967.254 93.4517 966.814 93.054C966.373 92.6515 965.852 92.4503 965.251 92.4503C964.347 92.4503 963.632 92.9001 963.106 93.7997C962.581 94.6946 962.315 96.0085 962.311 97.7415C962.306 98.9015 962.422 99.8769 962.659 100.668C962.9 101.458 963.241 102.055 963.681 102.457C964.122 102.855 964.645 103.054 965.251 103.054ZM978.591 105.277C977.421 105.277 976.418 104.981 975.58 104.389C974.746 103.793 974.105 102.933 973.655 101.811C973.21 100.684 972.987 99.3277 972.987 97.7415C972.992 96.1553 973.217 94.8059 973.662 93.6932C974.112 92.5758 974.753 91.7235 975.587 91.1364C976.425 90.5492 977.426 90.2557 978.591 90.2557C979.756 90.2557 980.757 90.5492 981.595 91.1364C982.433 91.7235 983.075 92.5758 983.52 93.6932C983.97 94.8106 984.195 96.16 984.195 97.7415C984.195 99.3324 983.97 100.691 983.52 101.818C983.075 102.94 982.433 103.797 981.595 104.389C980.762 104.981 979.76 105.277 978.591 105.277ZM978.591 103.054C979.5 103.054 980.217 102.607 980.743 101.712C981.273 100.812 981.538 99.4886 981.538 97.7415C981.538 96.5862 981.418 95.6155 981.176 94.8295C980.935 94.0436 980.594 93.4517 980.153 93.054C979.713 92.6515 979.192 92.4503 978.591 92.4503C977.687 92.4503 976.972 92.9001 976.446 93.7997C975.92 94.6946 975.655 96.0085 975.651 97.7415C975.646 98.9015 975.762 99.8769 975.999 100.668C976.24 101.458 976.581 102.055 977.021 102.457C977.462 102.855 977.985 103.054 978.591 103.054Z" fill="#D54242"/>
<g clip-path="url(#clip1_925_2068)" filter="url(#filter1_d_925_2068)">
<rect width="1123" height="44" transform="translate(4 165)" fill="#738092"/>
<rect x="4" y="165" width="1123" height="44" fill="#738092"/>
<path d="M37.3878 179.455V194H35.044L28.1903 184.092H28.0696V194H25.4347V179.455H27.7926L34.6392 189.369H34.767V179.455H37.3878ZM43.2844 194.22C42.5932 194.22 41.9705 194.097 41.4165 193.851C40.8673 193.6 40.4317 193.231 40.1097 192.743C39.7925 192.255 39.6339 191.654 39.6339 190.939C39.6339 190.323 39.7475 189.814 39.9748 189.412C40.2021 189.009 40.5122 188.688 40.9052 188.446C41.2982 188.205 41.7409 188.022 42.2333 187.899C42.7305 187.771 43.2442 187.679 43.7745 187.622C44.4137 187.556 44.9322 187.497 45.3299 187.445C45.7276 187.388 46.0165 187.303 46.1964 187.189C46.381 187.071 46.4734 186.888 46.4734 186.642V186.599C46.4734 186.064 46.3147 185.65 45.9975 185.357C45.6803 185.063 45.2234 184.916 44.6268 184.916C43.997 184.916 43.4975 185.054 43.1282 185.328C42.7636 185.603 42.5174 185.927 42.3896 186.301L39.989 185.96C40.1784 185.297 40.4909 184.743 40.9265 184.298C41.3621 183.848 41.8948 183.512 42.5245 183.29C43.1542 183.062 43.8503 182.949 44.6126 182.949C45.1381 182.949 45.6613 183.01 46.1822 183.134C46.703 183.257 47.1789 183.46 47.6097 183.744C48.0406 184.024 48.3862 184.405 48.6467 184.888C48.9118 185.371 49.0444 185.974 49.0444 186.699V194H46.5728V192.501H46.4876C46.3313 192.804 46.1112 193.089 45.8271 193.354C45.5477 193.614 45.195 193.825 44.7688 193.986C44.3474 194.142 43.8526 194.22 43.2844 194.22ZM43.9521 192.331C44.4682 192.331 44.9156 192.229 45.2944 192.026C45.6732 191.817 45.9644 191.543 46.168 191.202C46.3763 190.861 46.4805 190.489 46.4805 190.087V188.801C46.4 188.867 46.2627 188.929 46.0685 188.986C45.8791 189.043 45.6661 189.092 45.4293 189.135C45.1926 189.178 44.9582 189.215 44.7262 189.249C44.4942 189.282 44.293 189.31 44.1225 189.334C43.739 189.386 43.3957 189.471 43.0927 189.589C42.7897 189.708 42.5505 189.874 42.3754 190.087C42.2002 190.295 42.1126 190.565 42.1126 190.896C42.1126 191.37 42.2854 191.727 42.631 191.969C42.9767 192.21 43.417 192.331 43.9521 192.331ZM54.7688 194.22C54.0775 194.22 53.4549 194.097 52.9009 193.851C52.3517 193.6 51.9161 193.231 51.5941 192.743C51.2769 192.255 51.1183 191.654 51.1183 190.939C51.1183 190.323 51.2319 189.814 51.4592 189.412C51.6864 189.009 51.9966 188.688 52.3896 188.446C52.7826 188.205 53.2253 188.022 53.7177 187.899C54.2148 187.771 54.7286 187.679 55.2589 187.622C55.8981 187.556 56.4165 187.497 56.8143 187.445C57.212 187.388 57.5008 187.303 57.6808 187.189C57.8654 187.071 57.9577 186.888 57.9577 186.642V186.599C57.9577 186.064 57.7991 185.65 57.4819 185.357C57.1647 185.063 56.7077 184.916 56.1112 184.916C55.4814 184.916 54.9819 185.054 54.6126 185.328C54.248 185.603 54.0018 185.927 53.8739 186.301L51.4734 185.96C51.6628 185.297 51.9753 184.743 52.4109 184.298C52.8465 183.848 53.3791 183.512 54.0089 183.29C54.6386 183.062 55.3346 182.949 56.0969 182.949C56.6225 182.949 57.1457 183.01 57.6665 183.134C58.1874 183.257 58.6632 183.46 59.0941 183.744C59.525 184.024 59.8706 184.405 60.131 184.888C60.3962 185.371 60.5288 185.974 60.5288 186.699V194H58.0572V192.501H57.9719C57.8157 192.804 57.5955 193.089 57.3114 193.354C57.0321 193.614 56.6793 193.825 56.2532 193.986C55.8318 194.142 55.337 194.22 54.7688 194.22ZM55.4364 192.331C55.9525 192.331 56.4 192.229 56.7788 192.026C57.1576 191.817 57.4487 191.543 57.6523 191.202C57.8607 190.861 57.9648 190.489 57.9648 190.087V188.801C57.8844 188.867 57.747 188.929 57.5529 188.986C57.3635 189.043 57.1504 189.092 56.9137 189.135C56.677 189.178 56.4426 189.215 56.2106 189.249C55.9786 189.282 55.7773 189.31 55.6069 189.334C55.2234 189.386 54.8801 189.471 54.5771 189.589C54.274 189.708 54.0349 189.874 53.8597 190.087C53.6845 190.295 53.5969 190.565 53.5969 190.896C53.5969 191.37 53.7698 191.727 54.1154 191.969C54.4611 192.21 54.9014 192.331 55.4364 192.331ZM63.114 194V183.091H65.5714V184.945H65.6992C65.9265 184.32 66.3029 183.832 66.8285 183.482C67.354 183.126 67.9814 182.949 68.7106 182.949C69.4492 182.949 70.0719 183.129 70.5785 183.489C71.0898 183.844 71.4497 184.329 71.658 184.945H71.7717C72.0131 184.339 72.4203 183.856 72.9933 183.496C73.5709 183.131 74.2551 182.949 75.0458 182.949C76.0496 182.949 76.8687 183.266 77.5032 183.901C78.1377 184.535 78.4549 185.461 78.4549 186.678V194H75.8768V187.075C75.8768 186.398 75.6969 185.903 75.337 185.591C74.9772 185.274 74.5368 185.115 74.016 185.115C73.3957 185.115 72.9104 185.309 72.56 185.697C72.2144 186.081 72.0415 186.58 72.0415 187.196V194H69.5202V186.969C69.5202 186.405 69.3498 185.955 69.0089 185.619C68.6727 185.283 68.2324 185.115 67.6879 185.115C67.3185 185.115 66.9824 185.21 66.6793 185.399C66.3763 185.584 66.1348 185.847 65.9549 186.188C65.775 186.524 65.685 186.917 65.685 187.366V194H63.114ZM82.647 194.156C82.2161 194.156 81.8468 194.005 81.5391 193.702C81.2313 193.399 81.0798 193.029 81.0845 192.594C81.0798 192.168 81.2313 191.803 81.5391 191.5C81.8468 191.197 82.2161 191.045 82.647 191.045C83.0637 191.045 83.4259 191.197 83.7337 191.5C84.0462 191.803 84.2048 192.168 84.2095 192.594C84.2048 192.883 84.129 193.145 83.9822 193.382C83.8402 193.619 83.6508 193.808 83.4141 193.95C83.1821 194.088 82.9264 194.156 82.647 194.156ZM82.647 186.372C82.2161 186.372 81.8468 186.221 81.5391 185.918C81.2313 185.61 81.0798 185.241 81.0845 184.81C81.0798 184.384 81.2313 184.019 81.5391 183.716C81.8468 183.408 82.2161 183.254 82.647 183.254C83.0637 183.254 83.4259 183.408 83.7337 183.716C84.0462 184.019 84.2048 184.384 84.2095 184.81C84.2048 185.094 84.129 185.354 83.9822 185.591C83.8402 185.828 83.6508 186.017 83.4141 186.159C83.1821 186.301 82.9264 186.372 82.647 186.372Z" fill="white"/>
<path d="M110.034 186.727C110.034 188.261 109.757 189.587 109.203 190.705C108.649 191.822 107.889 192.684 106.923 193.29C105.957 193.896 104.854 194.199 103.614 194.199C102.373 194.199 101.27 193.896 100.304 193.29C99.3381 192.684 98.5781 191.822 98.0241 190.705C97.4702 189.587 97.1932 188.261 97.1932 186.727C97.1932 185.193 97.4702 183.867 98.0241 182.75C98.5781 181.633 99.3381 180.771 100.304 180.165C101.27 179.559 102.373 179.256 103.614 179.256C104.854 179.256 105.957 179.559 106.923 180.165C107.889 180.771 108.649 181.633 109.203 182.75C109.757 183.867 110.034 185.193 110.034 186.727ZM108.33 186.727C108.33 185.468 108.119 184.405 107.697 183.538C107.281 182.672 106.715 182.016 106 181.571C105.29 181.126 104.494 180.903 103.614 180.903C102.733 180.903 101.935 181.126 101.22 181.571C100.51 182.016 99.9441 182.672 99.5227 183.538C99.1061 184.405 98.8977 185.468 98.8977 186.727C98.8977 187.987 99.1061 189.05 99.5227 189.916C99.9441 190.783 100.51 191.438 101.22 191.884C101.935 192.329 102.733 192.551 103.614 192.551C104.494 192.551 105.29 192.329 106 191.884C106.715 191.438 107.281 190.783 107.697 189.916C108.119 189.05 108.33 187.987 108.33 186.727ZM119.643 189.54V183.091H121.32V194H119.643V192.153H119.53C119.274 192.707 118.876 193.179 118.337 193.567C117.797 193.95 117.115 194.142 116.291 194.142C115.609 194.142 115.003 193.993 114.473 193.695C113.943 193.392 113.526 192.937 113.223 192.331C112.92 191.72 112.768 190.951 112.768 190.023V183.091H114.445V189.909C114.445 190.705 114.667 191.339 115.112 191.812C115.562 192.286 116.135 192.523 116.831 192.523C117.248 192.523 117.671 192.416 118.102 192.203C118.538 191.99 118.902 191.663 119.196 191.223C119.494 190.783 119.643 190.222 119.643 189.54ZM128.509 194.227C127.6 194.227 126.797 193.998 126.101 193.538C125.405 193.074 124.861 192.421 124.468 191.578C124.075 190.731 123.878 189.729 123.878 188.574C123.878 187.428 124.075 186.434 124.468 185.591C124.861 184.748 125.408 184.097 126.108 183.638C126.809 183.179 127.619 182.949 128.537 182.949C129.248 182.949 129.809 183.067 130.221 183.304C130.637 183.536 130.954 183.801 131.172 184.099C131.395 184.393 131.568 184.634 131.691 184.824H131.833V179.455H133.509V194H131.89V192.324H131.691C131.568 192.523 131.392 192.774 131.165 193.077C130.938 193.375 130.614 193.643 130.192 193.879C129.771 194.111 129.21 194.227 128.509 194.227ZM128.736 192.722C129.408 192.722 129.977 192.546 130.441 192.196C130.905 191.841 131.257 191.351 131.499 190.726C131.74 190.096 131.861 189.369 131.861 188.545C131.861 187.731 131.743 187.018 131.506 186.408C131.269 185.792 130.919 185.314 130.455 184.973C129.991 184.627 129.418 184.455 128.736 184.455C128.026 184.455 127.434 184.637 126.961 185.001C126.492 185.361 126.139 185.851 125.902 186.472C125.67 187.087 125.554 187.778 125.554 188.545C125.554 189.322 125.673 190.027 125.909 190.662C126.151 191.292 126.506 191.794 126.975 192.168C127.448 192.537 128.035 192.722 128.736 192.722ZM141.385 194.227C140.334 194.227 139.427 193.995 138.665 193.531C137.908 193.062 137.323 192.409 136.911 191.571C136.504 190.728 136.3 189.748 136.3 188.631C136.3 187.513 136.504 186.528 136.911 185.676C137.323 184.819 137.896 184.152 138.63 183.673C139.368 183.19 140.23 182.949 141.215 182.949C141.783 182.949 142.344 183.044 142.898 183.233C143.452 183.422 143.956 183.73 144.411 184.156C144.865 184.578 145.228 185.136 145.498 185.832C145.767 186.528 145.902 187.385 145.902 188.403V189.114H137.493V187.665H144.198C144.198 187.049 144.075 186.5 143.828 186.017C143.587 185.534 143.241 185.153 142.792 184.874C142.346 184.594 141.821 184.455 141.215 184.455C140.547 184.455 139.97 184.62 139.482 184.952C138.999 185.278 138.627 185.705 138.367 186.23C138.106 186.756 137.976 187.319 137.976 187.92V188.886C137.976 189.71 138.118 190.409 138.402 190.982C138.691 191.55 139.091 191.983 139.603 192.281C140.114 192.575 140.708 192.722 141.385 192.722C141.826 192.722 142.223 192.66 142.578 192.537C142.938 192.409 143.248 192.22 143.509 191.969C143.769 191.713 143.971 191.396 144.113 191.017L145.732 191.472C145.561 192.021 145.275 192.504 144.873 192.92C144.47 193.332 143.973 193.654 143.381 193.886C142.789 194.114 142.124 194.227 141.385 194.227ZM148.452 194V183.091H150.071V184.739H150.185C150.384 184.199 150.744 183.761 151.265 183.425C151.785 183.089 152.373 182.92 153.026 182.92C153.149 182.92 153.303 182.923 153.488 182.928C153.672 182.932 153.812 182.939 153.907 182.949V184.653C153.85 184.639 153.72 184.618 153.516 184.589C153.317 184.556 153.106 184.54 152.884 184.54C152.354 184.54 151.88 184.651 151.463 184.874C151.051 185.091 150.725 185.394 150.483 185.783C150.247 186.166 150.128 186.604 150.128 187.097V194H148.452ZM160.135 194.227C159.084 194.227 158.177 193.995 157.415 193.531C156.658 193.062 156.073 192.409 155.661 191.571C155.254 190.728 155.05 189.748 155.05 188.631C155.05 187.513 155.254 186.528 155.661 185.676C156.073 184.819 156.646 184.152 157.38 183.673C158.118 183.19 158.98 182.949 159.965 182.949C160.533 182.949 161.094 183.044 161.648 183.233C162.202 183.422 162.706 183.73 163.161 184.156C163.615 184.578 163.978 185.136 164.248 185.832C164.517 186.528 164.652 187.385 164.652 188.403V189.114H156.243V187.665H162.948C162.948 187.049 162.825 186.5 162.578 186.017C162.337 185.534 161.991 185.153 161.542 184.874C161.096 184.594 160.571 184.455 159.965 184.455C159.297 184.455 158.72 184.62 158.232 184.952C157.749 185.278 157.377 185.705 157.117 186.23C156.856 186.756 156.726 187.319 156.726 187.92V188.886C156.726 189.71 156.868 190.409 157.152 190.982C157.441 191.55 157.841 191.983 158.353 192.281C158.864 192.575 159.458 192.722 160.135 192.722C160.576 192.722 160.973 192.66 161.328 192.537C161.688 192.409 161.998 192.22 162.259 191.969C162.519 191.713 162.721 191.396 162.863 191.017L164.482 191.472C164.311 192.021 164.025 192.504 163.623 192.92C163.22 193.332 162.723 193.654 162.131 193.886C161.539 194.114 160.874 194.227 160.135 194.227ZM168.878 187.438V194H167.202V183.091H168.821V184.795H168.963C169.219 184.241 169.607 183.796 170.128 183.46C170.649 183.119 171.321 182.949 172.145 182.949C172.884 182.949 173.53 183.1 174.084 183.403C174.638 183.702 175.069 184.156 175.377 184.767C175.685 185.373 175.838 186.14 175.838 187.068V194H174.162V187.182C174.162 186.325 173.94 185.657 173.495 185.179C173.05 184.696 172.439 184.455 171.662 184.455C171.127 184.455 170.649 184.571 170.228 184.803C169.811 185.035 169.482 185.373 169.24 185.818C168.999 186.263 168.878 186.803 168.878 187.438ZM181.373 194L178.049 183.091H179.81L182.168 191.443H182.282L184.612 183.091H186.401L188.702 191.415H188.816L191.174 183.091H192.935L189.612 194H187.964L185.577 185.619H185.407L183.021 194H181.373ZM199.212 194.227C198.227 194.227 197.363 193.993 196.62 193.524C195.881 193.055 195.303 192.4 194.887 191.557C194.475 190.714 194.269 189.729 194.269 188.602C194.269 187.466 194.475 186.474 194.887 185.626C195.303 184.779 195.881 184.121 196.62 183.652C197.363 183.183 198.227 182.949 199.212 182.949C200.197 182.949 201.059 183.183 201.797 183.652C202.541 184.121 203.118 184.779 203.53 185.626C203.947 186.474 204.155 187.466 204.155 188.602C204.155 189.729 203.947 190.714 203.53 191.557C203.118 192.4 202.541 193.055 201.797 193.524C201.059 193.993 200.197 194.227 199.212 194.227ZM199.212 192.722C199.96 192.722 200.576 192.53 201.059 192.146C201.542 191.763 201.899 191.259 202.131 190.634C202.363 190.009 202.479 189.331 202.479 188.602C202.479 187.873 202.363 187.194 202.131 186.564C201.899 185.934 201.542 185.425 201.059 185.037C200.576 184.649 199.96 184.455 199.212 184.455C198.464 184.455 197.848 184.649 197.365 185.037C196.882 185.425 196.525 185.934 196.293 186.564C196.061 187.194 195.945 187.873 195.945 188.602C195.945 189.331 196.061 190.009 196.293 190.634C196.525 191.259 196.882 191.763 197.365 192.146C197.848 192.53 198.464 192.722 199.212 192.722ZM208.39 187.438V194H206.714V183.091H208.333V184.795H208.475C208.731 184.241 209.119 183.796 209.64 183.46C210.161 183.119 210.833 182.949 211.657 182.949C212.396 182.949 213.042 183.1 213.596 183.403C214.15 183.702 214.581 184.156 214.888 184.767C215.196 185.373 215.35 186.14 215.35 187.068V194H213.674V187.182C213.674 186.325 213.451 185.657 213.006 185.179C212.561 184.696 211.951 184.455 211.174 184.455C210.639 184.455 210.161 184.571 209.739 184.803C209.323 185.035 208.994 185.373 208.752 185.818C208.511 186.263 208.39 186.803 208.39 187.438ZM218.413 194V183.091H220.089V194H218.413ZM219.265 181.273C218.939 181.273 218.657 181.161 218.42 180.939C218.188 180.716 218.072 180.449 218.072 180.136C218.072 179.824 218.188 179.556 218.42 179.334C218.657 179.111 218.939 179 219.265 179C219.592 179 219.871 179.111 220.103 179.334C220.34 179.556 220.458 179.824 220.458 180.136C220.458 180.449 220.34 180.716 220.103 180.939C219.871 181.161 219.592 181.273 219.265 181.273ZM224.835 187.438V194H223.159V183.091H224.778V184.795H224.92C225.176 184.241 225.564 183.796 226.085 183.46C226.606 183.119 227.278 182.949 228.102 182.949C228.841 182.949 229.487 183.1 230.041 183.403C230.595 183.702 231.026 184.156 231.334 184.767C231.642 185.373 231.795 186.14 231.795 187.068V194H230.119V187.182C230.119 186.325 229.897 185.657 229.452 185.179C229.007 184.696 228.396 184.455 227.619 184.455C227.084 184.455 226.606 184.571 226.185 184.803C225.768 185.035 225.439 185.373 225.197 185.818C224.956 186.263 224.835 186.803 224.835 187.438ZM239.262 198.318C238.452 198.318 237.756 198.214 237.174 198.006C236.591 197.802 236.106 197.532 235.718 197.196C235.334 196.865 235.029 196.509 234.801 196.131L236.137 195.193C236.288 195.392 236.48 195.619 236.712 195.875C236.944 196.135 237.261 196.36 237.664 196.55C238.071 196.744 238.604 196.841 239.262 196.841C240.142 196.841 240.869 196.628 241.442 196.202C242.015 195.776 242.301 195.108 242.301 194.199V191.983H242.159C242.036 192.182 241.861 192.428 241.634 192.722C241.411 193.01 241.089 193.268 240.668 193.496C240.251 193.718 239.688 193.83 238.978 193.83C238.097 193.83 237.306 193.621 236.605 193.205C235.909 192.788 235.358 192.182 234.951 191.386C234.548 190.591 234.347 189.625 234.347 188.489C234.347 187.371 234.543 186.398 234.936 185.57C235.329 184.736 235.876 184.092 236.577 183.638C237.278 183.179 238.087 182.949 239.006 182.949C239.716 182.949 240.28 183.067 240.696 183.304C241.118 183.536 241.44 183.801 241.662 184.099C241.89 184.393 242.065 184.634 242.188 184.824H242.358V183.091H243.978V194.312C243.978 195.25 243.765 196.012 243.338 196.599C242.917 197.191 242.349 197.625 241.634 197.899C240.924 198.179 240.133 198.318 239.262 198.318ZM239.205 192.324C239.877 192.324 240.445 192.17 240.909 191.862C241.373 191.554 241.726 191.112 241.968 190.534C242.209 189.956 242.33 189.265 242.33 188.46C242.33 187.674 242.212 186.981 241.975 186.379C241.738 185.778 241.388 185.307 240.924 184.966C240.46 184.625 239.887 184.455 239.205 184.455C238.495 184.455 237.903 184.634 237.429 184.994C236.961 185.354 236.608 185.837 236.371 186.443C236.139 187.049 236.023 187.722 236.023 188.46C236.023 189.218 236.141 189.888 236.378 190.47C236.62 191.048 236.975 191.502 237.444 191.834C237.917 192.161 238.504 192.324 239.205 192.324ZM251.62 194.227C250.569 194.227 249.662 193.995 248.9 193.531C248.142 193.062 247.557 192.409 247.145 191.571C246.738 190.728 246.534 189.748 246.534 188.631C246.534 187.513 246.738 186.528 247.145 185.676C247.557 184.819 248.13 184.152 248.864 183.673C249.603 183.19 250.464 182.949 251.449 182.949C252.017 182.949 252.578 183.044 253.132 183.233C253.686 183.422 254.191 183.73 254.645 184.156C255.1 184.578 255.462 185.136 255.732 185.832C256.002 186.528 256.137 187.385 256.137 188.403V189.114H247.728V187.665H254.432C254.432 187.049 254.309 186.5 254.063 186.017C253.821 185.534 253.476 185.153 253.026 184.874C252.581 184.594 252.055 184.455 251.449 184.455C250.782 184.455 250.204 184.62 249.716 184.952C249.233 185.278 248.862 185.705 248.601 186.23C248.341 186.756 248.211 187.319 248.211 187.92V188.886C248.211 189.71 248.353 190.409 248.637 190.982C248.926 191.55 249.326 191.983 249.837 192.281C250.348 192.575 250.943 192.722 251.62 192.722C252.06 192.722 252.458 192.66 252.813 192.537C253.173 192.409 253.483 192.22 253.743 191.969C254.004 191.713 254.205 191.396 254.347 191.017L255.966 191.472C255.796 192.021 255.509 192.504 255.107 192.92C254.704 193.332 254.207 193.654 253.615 193.886C253.024 194.114 252.358 194.227 251.62 194.227ZM260.363 187.438V194H258.686V183.091H260.306V184.795H260.448C260.703 184.241 261.092 183.796 261.613 183.46C262.133 183.119 262.806 182.949 263.63 182.949C264.368 182.949 265.015 183.1 265.569 183.403C266.123 183.702 266.553 184.156 266.861 184.767C267.169 185.373 267.323 186.14 267.323 187.068V194H265.647V187.182C265.647 186.325 265.424 185.657 264.979 185.179C264.534 184.696 263.923 184.455 263.147 184.455C262.612 184.455 262.133 184.571 261.712 184.803C261.295 185.035 260.966 185.373 260.725 185.818C260.483 186.263 260.363 186.803 260.363 187.438Z" fill="white"/>
</g>
<rect x="4" y="226" width="1123" height="74" rx="20" fill="#00A9F3"/>
<path d="M541.209 255.455V270H538.574V258.018H538.489L535.087 260.192V257.777L538.702 255.455H541.209ZM550.278 270.277C549.109 270.277 548.105 269.981 547.267 269.389C546.434 268.793 545.792 267.933 545.342 266.811C544.897 265.684 544.675 264.328 544.675 262.741C544.679 261.155 544.904 259.806 545.349 258.693C545.799 257.576 546.441 256.723 547.274 256.136C548.112 255.549 549.114 255.256 550.278 255.256C551.443 255.256 552.445 255.549 553.283 256.136C554.121 256.723 554.762 257.576 555.207 258.693C555.657 259.811 555.882 261.16 555.882 262.741C555.882 264.332 555.657 265.691 555.207 266.818C554.762 267.94 554.121 268.797 553.283 269.389C552.449 269.981 551.448 270.277 550.278 270.277ZM550.278 268.054C551.188 268.054 551.905 267.607 552.43 266.712C552.961 265.812 553.226 264.489 553.226 262.741C553.226 261.586 553.105 260.616 552.864 259.83C552.622 259.044 552.281 258.452 551.841 258.054C551.401 257.652 550.88 257.45 550.278 257.45C549.374 257.45 548.659 257.9 548.134 258.8C547.608 259.695 547.343 261.009 547.338 262.741C547.333 263.902 547.449 264.877 547.686 265.668C547.928 266.458 548.268 267.055 548.709 267.457C549.149 267.855 549.672 268.054 550.278 268.054ZM563.618 270.277C562.449 270.277 561.445 269.981 560.607 269.389C559.774 268.793 559.132 267.933 558.682 266.811C558.237 265.684 558.015 264.328 558.015 262.741C558.019 261.155 558.244 259.806 558.689 258.693C559.139 257.576 559.781 256.723 560.614 256.136C561.452 255.549 562.453 255.256 563.618 255.256C564.783 255.256 565.784 255.549 566.623 256.136C567.461 256.723 568.102 257.576 568.547 258.693C568.997 259.811 569.222 261.16 569.222 262.741C569.222 264.332 568.997 265.691 568.547 266.818C568.102 267.94 567.461 268.797 566.623 269.389C565.789 269.981 564.788 270.277 563.618 270.277ZM563.618 268.054C564.527 268.054 565.245 267.607 565.77 266.712C566.301 265.812 566.566 264.489 566.566 262.741C566.566 261.586 566.445 260.616 566.203 259.83C565.962 259.044 565.621 258.452 565.181 258.054C564.74 257.652 564.22 257.45 563.618 257.45C562.714 257.45 561.999 257.9 561.473 258.8C560.948 259.695 560.683 261.009 560.678 262.741C560.673 263.902 560.789 264.877 561.026 265.668C561.267 266.458 561.608 267.055 562.049 267.457C562.489 267.855 563.012 268.054 563.618 268.054Z" fill="white"/>
<g clip-path="url(#clip2_925_2068)" filter="url(#filter2_d_925_2068)">
<rect width="1123" height="44" transform="translate(4 330)" fill="#868686"/>
<rect x="4" y="330" width="1123" height="44" fill="#738092"/>
<path d="M37.3878 344.455V359H35.044L28.1903 349.092H28.0696V359H25.4347V344.455H27.7926L34.6392 354.369H34.767V344.455H37.3878ZM43.2844 359.22C42.5932 359.22 41.9705 359.097 41.4165 358.851C40.8673 358.6 40.4317 358.231 40.1097 357.743C39.7925 357.255 39.6339 356.654 39.6339 355.939C39.6339 355.323 39.7475 354.814 39.9748 354.412C40.2021 354.009 40.5122 353.688 40.9052 353.446C41.2982 353.205 41.7409 353.022 42.2333 352.899C42.7305 352.771 43.2442 352.679 43.7745 352.622C44.4137 352.556 44.9322 352.497 45.3299 352.445C45.7276 352.388 46.0165 352.303 46.1964 352.189C46.381 352.071 46.4734 351.888 46.4734 351.642V351.599C46.4734 351.064 46.3147 350.65 45.9975 350.357C45.6803 350.063 45.2234 349.916 44.6268 349.916C43.997 349.916 43.4975 350.054 43.1282 350.328C42.7636 350.603 42.5174 350.927 42.3896 351.301L39.989 350.96C40.1784 350.297 40.4909 349.743 40.9265 349.298C41.3621 348.848 41.8948 348.512 42.5245 348.29C43.1542 348.062 43.8503 347.949 44.6126 347.949C45.1381 347.949 45.6613 348.01 46.1822 348.134C46.703 348.257 47.1789 348.46 47.6097 348.744C48.0406 349.024 48.3862 349.405 48.6467 349.888C48.9118 350.371 49.0444 350.974 49.0444 351.699V359H46.5728V357.501H46.4876C46.3313 357.804 46.1112 358.089 45.8271 358.354C45.5477 358.614 45.195 358.825 44.7688 358.986C44.3474 359.142 43.8526 359.22 43.2844 359.22ZM43.9521 357.331C44.4682 357.331 44.9156 357.229 45.2944 357.026C45.6732 356.817 45.9644 356.543 46.168 356.202C46.3763 355.861 46.4805 355.489 46.4805 355.087V353.801C46.4 353.867 46.2627 353.929 46.0685 353.986C45.8791 354.043 45.6661 354.092 45.4293 354.135C45.1926 354.178 44.9582 354.215 44.7262 354.249C44.4942 354.282 44.293 354.31 44.1225 354.334C43.739 354.386 43.3957 354.471 43.0927 354.589C42.7897 354.708 42.5505 354.874 42.3754 355.087C42.2002 355.295 42.1126 355.565 42.1126 355.896C42.1126 356.37 42.2854 356.727 42.631 356.969C42.9767 357.21 43.417 357.331 43.9521 357.331ZM54.7688 359.22C54.0775 359.22 53.4549 359.097 52.9009 358.851C52.3517 358.6 51.9161 358.231 51.5941 357.743C51.2769 357.255 51.1183 356.654 51.1183 355.939C51.1183 355.323 51.2319 354.814 51.4592 354.412C51.6864 354.009 51.9966 353.688 52.3896 353.446C52.7826 353.205 53.2253 353.022 53.7177 352.899C54.2148 352.771 54.7286 352.679 55.2589 352.622C55.8981 352.556 56.4165 352.497 56.8143 352.445C57.212 352.388 57.5008 352.303 57.6808 352.189C57.8654 352.071 57.9577 351.888 57.9577 351.642V351.599C57.9577 351.064 57.7991 350.65 57.4819 350.357C57.1647 350.063 56.7077 349.916 56.1112 349.916C55.4814 349.916 54.9819 350.054 54.6126 350.328C54.248 350.603 54.0018 350.927 53.8739 351.301L51.4734 350.96C51.6628 350.297 51.9753 349.743 52.4109 349.298C52.8465 348.848 53.3791 348.512 54.0089 348.29C54.6386 348.062 55.3346 347.949 56.0969 347.949C56.6225 347.949 57.1457 348.01 57.6665 348.134C58.1874 348.257 58.6632 348.46 59.0941 348.744C59.525 349.024 59.8706 349.405 60.131 349.888C60.3962 350.371 60.5288 350.974 60.5288 351.699V359H58.0572V357.501H57.9719C57.8157 357.804 57.5955 358.089 57.3114 358.354C57.0321 358.614 56.6793 358.825 56.2532 358.986C55.8318 359.142 55.337 359.22 54.7688 359.22ZM55.4364 357.331C55.9525 357.331 56.4 357.229 56.7788 357.026C57.1576 356.817 57.4487 356.543 57.6523 356.202C57.8607 355.861 57.9648 355.489 57.9648 355.087V353.801C57.8844 353.867 57.747 353.929 57.5529 353.986C57.3635 354.043 57.1504 354.092 56.9137 354.135C56.677 354.178 56.4426 354.215 56.2106 354.249C55.9786 354.282 55.7773 354.31 55.6069 354.334C55.2234 354.386 54.8801 354.471 54.5771 354.589C54.274 354.708 54.0349 354.874 53.8597 355.087C53.6845 355.295 53.5969 355.565 53.5969 355.896C53.5969 356.37 53.7698 356.727 54.1154 356.969C54.4611 357.21 54.9014 357.331 55.4364 357.331ZM63.114 359V348.091H65.5714V349.945H65.6992C65.9265 349.32 66.3029 348.832 66.8285 348.482C67.354 348.126 67.9814 347.949 68.7106 347.949C69.4492 347.949 70.0719 348.129 70.5785 348.489C71.0898 348.844 71.4497 349.329 71.658 349.945H71.7717C72.0131 349.339 72.4203 348.856 72.9933 348.496C73.5709 348.131 74.2551 347.949 75.0458 347.949C76.0496 347.949 76.8687 348.266 77.5032 348.901C78.1377 349.535 78.4549 350.461 78.4549 351.678V359H75.8768V352.075C75.8768 351.398 75.6969 350.903 75.337 350.591C74.9772 350.274 74.5368 350.115 74.016 350.115C73.3957 350.115 72.9104 350.309 72.56 350.697C72.2144 351.081 72.0415 351.58 72.0415 352.196V359H69.5202V351.969C69.5202 351.405 69.3498 350.955 69.0089 350.619C68.6727 350.283 68.2324 350.115 67.6879 350.115C67.3185 350.115 66.9824 350.21 66.6793 350.399C66.3763 350.584 66.1348 350.847 65.9549 351.188C65.775 351.524 65.685 351.917 65.685 352.366V359H63.114ZM82.647 359.156C82.2161 359.156 81.8468 359.005 81.5391 358.702C81.2313 358.399 81.0798 358.029 81.0845 357.594C81.0798 357.168 81.2313 356.803 81.5391 356.5C81.8468 356.197 82.2161 356.045 82.647 356.045C83.0637 356.045 83.4259 356.197 83.7337 356.5C84.0462 356.803 84.2048 357.168 84.2095 357.594C84.2048 357.883 84.129 358.145 83.9822 358.382C83.8402 358.619 83.6508 358.808 83.4141 358.95C83.1821 359.088 82.9264 359.156 82.647 359.156ZM82.647 351.372C82.2161 351.372 81.8468 351.221 81.5391 350.918C81.2313 350.61 81.0798 350.241 81.0845 349.81C81.0798 349.384 81.2313 349.019 81.5391 348.716C81.8468 348.408 82.2161 348.254 82.647 348.254C83.0637 348.254 83.4259 348.408 83.7337 348.716C84.0462 349.019 84.2048 349.384 84.2095 349.81C84.2048 350.094 84.129 350.354 83.9822 350.591C83.8402 350.828 83.6508 351.017 83.4141 351.159C83.1821 351.301 82.9264 351.372 82.647 351.372Z" fill="white"/>
<path d="M96.9659 346.017V344.455H107.875V346.017H103.301V359H101.54V346.017H96.9659ZM110.366 359V348.091H112.042V359H110.366ZM111.218 346.273C110.892 346.273 110.61 346.161 110.373 345.939C110.141 345.716 110.025 345.449 110.025 345.136C110.025 344.824 110.141 344.556 110.373 344.334C110.61 344.111 110.892 344 111.218 344C111.545 344 111.824 344.111 112.056 344.334C112.293 344.556 112.412 344.824 112.412 345.136C112.412 345.449 112.293 345.716 112.056 345.939C111.824 346.161 111.545 346.273 111.218 346.273ZM116.788 352.438V359H115.112V348.091H116.732V349.795H116.874C117.129 349.241 117.518 348.796 118.038 348.46C118.559 348.119 119.232 347.949 120.055 347.949C120.794 347.949 121.44 348.1 121.994 348.403C122.548 348.702 122.979 349.156 123.287 349.767C123.595 350.373 123.749 351.14 123.749 352.068V359H122.072V352.182C122.072 351.325 121.85 350.657 121.405 350.179C120.96 349.696 120.349 349.455 119.572 349.455C119.037 349.455 118.559 349.571 118.138 349.803C117.721 350.035 117.392 350.373 117.151 350.818C116.909 351.263 116.788 351.803 116.788 352.438ZM127.5 363.091C127.216 363.091 126.963 363.067 126.74 363.02C126.518 362.977 126.364 362.935 126.279 362.892L126.705 361.415C127.112 361.519 127.472 361.557 127.784 361.528C128.097 361.5 128.374 361.36 128.615 361.109C128.862 360.863 129.087 360.463 129.29 359.909L129.603 359.057L125.569 348.091H127.387L130.398 356.784H130.512L133.523 348.091H135.341L130.711 360.591C130.502 361.154 130.244 361.621 129.936 361.99C129.629 362.364 129.271 362.641 128.864 362.821C128.462 363.001 128.007 363.091 127.5 363.091ZM144.855 352.438V359H143.179V344.455H144.855V349.795H144.997C145.252 349.232 145.636 348.785 146.147 348.453C146.663 348.117 147.35 347.949 148.207 347.949C148.95 347.949 149.601 348.098 150.16 348.396C150.719 348.69 151.152 349.142 151.46 349.753C151.772 350.359 151.929 351.131 151.929 352.068V359H150.252V352.182C150.252 351.315 150.028 350.645 149.578 350.172C149.133 349.694 148.515 349.455 147.724 349.455C147.175 349.455 146.682 349.571 146.247 349.803C145.816 350.035 145.475 350.373 145.224 350.818C144.978 351.263 144.855 351.803 144.855 352.438ZM159.427 359.227C158.442 359.227 157.578 358.993 156.835 358.524C156.096 358.055 155.518 357.4 155.102 356.557C154.69 355.714 154.484 354.729 154.484 353.602C154.484 352.466 154.69 351.474 155.102 350.626C155.518 349.779 156.096 349.121 156.835 348.652C157.578 348.183 158.442 347.949 159.427 347.949C160.412 347.949 161.273 348.183 162.012 348.652C162.755 349.121 163.333 349.779 163.745 350.626C164.162 351.474 164.37 352.466 164.37 353.602C164.37 354.729 164.162 355.714 163.745 356.557C163.333 357.4 162.755 358.055 162.012 358.524C161.273 358.993 160.412 359.227 159.427 359.227ZM159.427 357.722C160.175 357.722 160.79 357.53 161.273 357.146C161.756 356.763 162.114 356.259 162.346 355.634C162.578 355.009 162.694 354.331 162.694 353.602C162.694 352.873 162.578 352.194 162.346 351.564C162.114 350.934 161.756 350.425 161.273 350.037C160.79 349.649 160.175 349.455 159.427 349.455C158.679 349.455 158.063 349.649 157.58 350.037C157.097 350.425 156.74 350.934 156.508 351.564C156.276 352.194 156.16 352.873 156.16 353.602C156.16 354.331 156.276 355.009 156.508 355.634C156.74 356.259 157.097 356.763 157.58 357.146C158.063 357.53 158.679 357.722 159.427 357.722ZM173.804 354.54V348.091H175.48V359H173.804V357.153H173.69C173.434 357.707 173.037 358.179 172.497 358.567C171.957 358.95 171.275 359.142 170.451 359.142C169.77 359.142 169.163 358.993 168.633 358.695C168.103 358.392 167.686 357.937 167.383 357.331C167.08 356.72 166.929 355.951 166.929 355.023V348.091H168.605V354.909C168.605 355.705 168.827 356.339 169.272 356.812C169.722 357.286 170.295 357.523 170.991 357.523C171.408 357.523 171.832 357.416 172.262 357.203C172.698 356.99 173.063 356.663 173.356 356.223C173.654 355.783 173.804 355.222 173.804 354.54ZM186.277 350.534L184.771 350.96C184.677 350.709 184.537 350.465 184.352 350.229C184.172 349.987 183.926 349.788 183.614 349.632C183.301 349.476 182.901 349.398 182.413 349.398C181.746 349.398 181.189 349.552 180.744 349.859C180.304 350.162 180.084 350.548 180.084 351.017C180.084 351.434 180.235 351.763 180.538 352.004C180.841 352.246 181.315 352.447 181.959 352.608L183.578 353.006C184.554 353.242 185.28 353.605 185.759 354.092C186.237 354.575 186.476 355.198 186.476 355.96C186.476 356.585 186.296 357.144 185.936 357.636C185.581 358.129 185.084 358.517 184.445 358.801C183.805 359.085 183.062 359.227 182.214 359.227C181.102 359.227 180.181 358.986 179.452 358.503C178.723 358.02 178.261 357.314 178.067 356.386L179.658 355.989C179.809 356.576 180.096 357.016 180.517 357.31C180.943 357.603 181.5 357.75 182.186 357.75C182.967 357.75 183.588 357.584 184.047 357.253C184.511 356.917 184.743 356.514 184.743 356.045C184.743 355.667 184.61 355.349 184.345 355.094C184.08 354.833 183.673 354.639 183.124 354.511L181.305 354.085C180.306 353.848 179.572 353.482 179.104 352.984C178.64 352.482 178.408 351.855 178.408 351.102C178.408 350.487 178.58 349.942 178.926 349.469C179.277 348.995 179.752 348.624 180.354 348.354C180.96 348.084 181.646 347.949 182.413 347.949C183.493 347.949 184.34 348.186 184.956 348.659C185.576 349.133 186.017 349.758 186.277 350.534ZM193.573 359.227C192.522 359.227 191.615 358.995 190.853 358.531C190.095 358.062 189.51 357.409 189.098 356.571C188.691 355.728 188.488 354.748 188.488 353.631C188.488 352.513 188.691 351.528 189.098 350.676C189.51 349.819 190.083 349.152 190.817 348.673C191.556 348.19 192.417 347.949 193.402 347.949C193.971 347.949 194.532 348.044 195.086 348.233C195.64 348.422 196.144 348.73 196.598 349.156C197.053 349.578 197.415 350.136 197.685 350.832C197.955 351.528 198.09 352.385 198.09 353.403V354.114H189.681V352.665H196.385C196.385 352.049 196.262 351.5 196.016 351.017C195.775 350.534 195.429 350.153 194.979 349.874C194.534 349.594 194.008 349.455 193.402 349.455C192.735 349.455 192.157 349.62 191.669 349.952C191.186 350.278 190.815 350.705 190.554 351.23C190.294 351.756 190.164 352.319 190.164 352.92V353.886C190.164 354.71 190.306 355.409 190.59 355.982C190.879 356.55 191.279 356.983 191.79 357.281C192.301 357.575 192.896 357.722 193.573 357.722C194.013 357.722 194.411 357.66 194.766 357.537C195.126 357.409 195.436 357.22 195.696 356.969C195.957 356.713 196.158 356.396 196.3 356.017L197.919 356.472C197.749 357.021 197.462 357.504 197.06 357.92C196.658 358.332 196.16 358.654 195.569 358.886C194.977 359.114 194.311 359.227 193.573 359.227ZM208.367 350.534L206.861 350.96C206.766 350.709 206.627 350.465 206.442 350.229C206.262 349.987 206.016 349.788 205.703 349.632C205.391 349.476 204.991 349.398 204.503 349.398C203.836 349.398 203.279 349.552 202.834 349.859C202.394 350.162 202.174 350.548 202.174 351.017C202.174 351.434 202.325 351.763 202.628 352.004C202.931 352.246 203.405 352.447 204.049 352.608L205.668 353.006C206.643 353.242 207.37 353.605 207.848 354.092C208.327 354.575 208.566 355.198 208.566 355.96C208.566 356.585 208.386 357.144 208.026 357.636C207.671 358.129 207.174 358.517 206.534 358.801C205.895 359.085 205.152 359.227 204.304 359.227C203.192 359.227 202.271 358.986 201.542 358.503C200.812 358.02 200.351 357.314 200.157 356.386L201.748 355.989C201.899 356.576 202.185 357.016 202.607 357.31C203.033 357.603 203.589 357.75 204.276 357.75C205.057 357.75 205.677 357.584 206.137 357.253C206.601 356.917 206.833 356.514 206.833 356.045C206.833 355.667 206.7 355.349 206.435 355.094C206.17 354.833 205.763 354.639 205.213 354.511L203.395 354.085C202.396 353.848 201.662 353.482 201.194 352.984C200.73 352.482 200.498 351.855 200.498 351.102C200.498 350.487 200.67 349.942 201.016 349.469C201.366 348.995 201.842 348.624 202.444 348.354C203.05 348.084 203.736 347.949 204.503 347.949C205.583 347.949 206.43 348.186 207.046 348.659C207.666 349.133 208.106 349.758 208.367 350.534ZM219.924 359.256C219.233 359.256 218.605 359.125 218.042 358.865C217.478 358.6 217.031 358.219 216.7 357.722C216.368 357.22 216.202 356.614 216.202 355.903C216.202 355.278 216.326 354.772 216.572 354.384C216.818 353.991 217.147 353.683 217.559 353.46C217.971 353.238 218.425 353.072 218.923 352.963C219.424 352.849 219.929 352.759 220.435 352.693C221.098 352.608 221.636 352.544 222.048 352.501C222.464 352.454 222.767 352.376 222.957 352.267C223.151 352.158 223.248 351.969 223.248 351.699V351.642C223.248 350.941 223.056 350.397 222.673 350.009C222.294 349.62 221.719 349.426 220.947 349.426C220.147 349.426 219.519 349.601 219.065 349.952C218.61 350.302 218.29 350.676 218.106 351.074L216.515 350.506C216.799 349.843 217.178 349.327 217.651 348.957C218.129 348.583 218.65 348.323 219.214 348.176C219.782 348.025 220.341 347.949 220.89 347.949C221.24 347.949 221.643 347.991 222.097 348.077C222.557 348.157 222.999 348.325 223.425 348.581C223.856 348.837 224.214 349.223 224.498 349.739C224.782 350.255 224.924 350.946 224.924 351.812V359H223.248V357.523H223.163C223.049 357.759 222.86 358.013 222.594 358.283C222.329 358.553 221.977 358.782 221.536 358.972C221.096 359.161 220.558 359.256 219.924 359.256ZM220.18 357.75C220.843 357.75 221.401 357.62 221.856 357.359C222.315 357.099 222.661 356.763 222.893 356.351C223.129 355.939 223.248 355.506 223.248 355.051V353.517C223.177 353.602 223.021 353.68 222.779 353.751C222.542 353.818 222.268 353.877 221.955 353.929C221.647 353.976 221.347 354.019 221.053 354.057C220.764 354.09 220.53 354.118 220.35 354.142C219.915 354.199 219.507 354.291 219.129 354.419C218.754 354.542 218.451 354.729 218.219 354.98C217.992 355.226 217.879 355.562 217.879 355.989C217.879 356.571 218.094 357.011 218.525 357.31C218.96 357.603 219.512 357.75 220.18 357.75ZM231.194 359.256C230.502 359.256 229.875 359.125 229.311 358.865C228.748 358.6 228.301 358.219 227.969 357.722C227.638 357.22 227.472 356.614 227.472 355.903C227.472 355.278 227.595 354.772 227.841 354.384C228.087 353.991 228.417 353.683 228.828 353.46C229.24 353.238 229.695 353.072 230.192 352.963C230.694 352.849 231.198 352.759 231.705 352.693C232.368 352.608 232.905 352.544 233.317 352.501C233.734 352.454 234.037 352.376 234.226 352.267C234.42 352.158 234.517 351.969 234.517 351.699V351.642C234.517 350.941 234.326 350.397 233.942 350.009C233.563 349.62 232.988 349.426 232.216 349.426C231.416 349.426 230.789 349.601 230.334 349.952C229.88 350.302 229.56 350.676 229.375 351.074L227.784 350.506C228.069 349.843 228.447 349.327 228.921 348.957C229.399 348.583 229.92 348.323 230.483 348.176C231.051 348.025 231.61 347.949 232.159 347.949C232.51 347.949 232.912 347.991 233.367 348.077C233.826 348.157 234.269 348.325 234.695 348.581C235.126 348.837 235.483 349.223 235.767 349.739C236.051 350.255 236.194 350.946 236.194 351.812V359H234.517V357.523H234.432C234.319 357.759 234.129 358.013 233.864 358.283C233.599 358.553 233.246 358.782 232.806 358.972C232.365 359.161 231.828 359.256 231.194 359.256ZM231.449 357.75C232.112 357.75 232.671 357.62 233.125 357.359C233.585 357.099 233.93 356.763 234.162 356.351C234.399 355.939 234.517 355.506 234.517 355.051V353.517C234.446 353.602 234.29 353.68 234.049 353.751C233.812 353.818 233.537 353.877 233.225 353.929C232.917 353.976 232.616 354.019 232.323 354.057C232.034 354.09 231.8 354.118 231.62 354.142C231.184 354.199 230.777 354.291 230.398 354.419C230.024 354.542 229.721 354.729 229.489 354.98C229.262 355.226 229.148 355.562 229.148 355.989C229.148 356.571 229.364 357.011 229.794 357.31C230.23 357.603 230.782 357.75 231.449 357.75ZM240.929 352.438V359H239.253V348.091H240.872V349.795H241.014C241.27 349.241 241.658 348.796 242.179 348.46C242.7 348.119 243.372 347.949 244.196 347.949C244.935 347.949 245.581 348.1 246.135 348.403C246.689 348.702 247.12 349.156 247.428 349.767C247.735 350.373 247.889 351.14 247.889 352.068V359H246.213V352.182C246.213 351.325 245.991 350.657 245.545 350.179C245.1 349.696 244.49 349.455 243.713 349.455C243.178 349.455 242.7 349.571 242.278 349.803C241.862 350.035 241.533 350.373 241.291 350.818C241.05 351.263 240.929 351.803 240.929 352.438ZM256.265 359V357.722L262.458 349.767V349.653H256.463V348.091H264.617V349.426L258.594 357.324V357.438H264.816V359H256.265ZM271.659 359.227C270.608 359.227 269.701 358.995 268.939 358.531C268.181 358.062 267.596 357.409 267.184 356.571C266.777 355.728 266.574 354.748 266.574 353.631C266.574 352.513 266.777 351.528 267.184 350.676C267.596 349.819 268.169 349.152 268.903 348.673C269.642 348.19 270.503 347.949 271.488 347.949C272.056 347.949 272.618 348.044 273.172 348.233C273.725 348.422 274.23 348.73 274.684 349.156C275.139 349.578 275.501 350.136 275.771 350.832C276.041 351.528 276.176 352.385 276.176 353.403V354.114H267.767V352.665H274.471C274.471 352.049 274.348 351.5 274.102 351.017C273.86 350.534 273.515 350.153 273.065 349.874C272.62 349.594 272.094 349.455 271.488 349.455C270.821 349.455 270.243 349.62 269.755 349.952C269.272 350.278 268.901 350.705 268.64 351.23C268.38 351.756 268.25 352.319 268.25 352.92V353.886C268.25 354.71 268.392 355.409 268.676 355.982C268.965 356.55 269.365 356.983 269.876 357.281C270.387 357.575 270.982 357.722 271.659 357.722C272.099 357.722 272.497 357.66 272.852 357.537C273.212 357.409 273.522 357.22 273.782 356.969C274.043 356.713 274.244 356.396 274.386 356.017L276.005 356.472C275.835 357.021 275.548 357.504 275.146 357.92C274.743 358.332 274.246 358.654 273.654 358.886C273.063 359.114 272.397 359.227 271.659 359.227ZM283.299 359.227C282.248 359.227 281.342 358.995 280.579 358.531C279.822 358.062 279.237 357.409 278.825 356.571C278.418 355.728 278.214 354.748 278.214 353.631C278.214 352.513 278.418 351.528 278.825 350.676C279.237 349.819 279.81 349.152 280.544 348.673C281.282 348.19 282.144 347.949 283.129 347.949C283.697 347.949 284.258 348.044 284.812 348.233C285.366 348.422 285.87 348.73 286.325 349.156C286.779 349.578 287.142 350.136 287.412 350.832C287.681 351.528 287.816 352.385 287.816 353.403V354.114H279.407V352.665H286.112C286.112 352.049 285.989 351.5 285.743 351.017C285.501 350.534 285.155 350.153 284.706 349.874C284.261 349.594 283.735 349.455 283.129 349.455C282.461 349.455 281.884 349.62 281.396 349.952C280.913 350.278 280.541 350.705 280.281 351.23C280.02 351.756 279.89 352.319 279.89 352.92V353.886C279.89 354.71 280.032 355.409 280.316 355.982C280.605 356.55 281.005 356.983 281.517 357.281C282.028 357.575 282.622 357.722 283.299 357.722C283.74 357.722 284.137 357.66 284.493 357.537C284.852 357.409 285.163 357.22 285.423 356.969C285.683 356.713 285.885 356.396 286.027 356.017L287.646 356.472C287.475 357.021 287.189 357.504 286.787 357.92C286.384 358.332 285.887 358.654 285.295 358.886C284.703 359.114 284.038 359.227 283.299 359.227Z" fill="white"/>
</g>
<rect x="4" y="391" width="1123" height="74" rx="20" fill="#EDEDED"/>
<path d="M4 411C4 399.954 12.9543 391 24 391H695V465H24C12.9543 465 4 456.046 4 445V411Z" fill="#00A9F3"/>
<path d="M345.209 420.455V435H342.574V423.018H342.489L339.087 425.192V422.777L342.702 420.455H345.209ZM353.959 435.199C353.012 435.199 352.164 435.021 351.416 434.666C350.668 434.306 350.074 433.814 349.634 433.189C349.198 432.564 348.966 431.849 348.938 431.044H351.494C351.542 431.641 351.8 432.128 352.268 432.507C352.737 432.881 353.301 433.068 353.959 433.068C354.475 433.068 354.934 432.95 355.337 432.713C355.739 432.476 356.056 432.147 356.288 431.726C356.52 431.304 356.634 430.824 356.629 430.284C356.634 429.735 356.518 429.247 356.281 428.821C356.045 428.395 355.72 428.061 355.308 427.82C354.896 427.573 354.423 427.45 353.888 427.45C353.452 427.446 353.024 427.526 352.602 427.692C352.181 427.857 351.847 428.075 351.601 428.345L349.222 427.955L349.982 420.455H358.419V422.656H352.162L351.743 426.513H351.828C352.098 426.196 352.479 425.933 352.972 425.724C353.464 425.511 354.004 425.405 354.591 425.405C355.472 425.405 356.258 425.613 356.949 426.03C357.64 426.442 358.185 427.01 358.582 427.734C358.98 428.459 359.179 429.287 359.179 430.22C359.179 431.181 358.956 432.038 358.511 432.791C358.071 433.539 357.458 434.129 356.672 434.56C355.891 434.986 354.986 435.199 353.959 435.199Z" fill="white"/>
<path d="M897.611 432.67V422.841H899.841V432.67H897.611ZM893.811 428.871V426.641H903.641V428.871H893.811ZM912.666 420.455V435H910.031V423.018H909.946L906.544 425.192V422.777L910.159 420.455H912.666ZM921.735 435.277C920.566 435.277 919.562 434.981 918.724 434.389C917.891 433.793 917.249 432.933 916.799 431.811C916.354 430.684 916.132 429.328 916.132 427.741C916.136 426.155 916.361 424.806 916.806 423.693C917.256 422.576 917.898 421.723 918.731 421.136C919.569 420.549 920.571 420.256 921.735 420.256C922.9 420.256 923.902 420.549 924.74 421.136C925.578 421.723 926.219 422.576 926.664 423.693C927.114 424.811 927.339 426.16 927.339 427.741C927.339 429.332 927.114 430.691 926.664 431.818C926.219 432.94 925.578 433.797 924.74 434.389C923.906 434.981 922.905 435.277 921.735 435.277ZM921.735 433.054C922.645 433.054 923.362 432.607 923.887 431.712C924.418 430.812 924.683 429.489 924.683 427.741C924.683 426.586 924.562 425.616 924.321 424.83C924.079 424.044 923.738 423.452 923.298 423.054C922.858 422.652 922.337 422.45 921.735 422.45C920.831 422.45 920.116 422.9 919.591 423.8C919.065 424.695 918.8 426.009 918.795 427.741C918.79 428.902 918.906 429.877 919.143 430.668C919.385 431.458 919.725 432.055 920.166 432.457C920.606 432.855 921.129 433.054 921.735 433.054Z" fill="#188D39"/>
<defs>
<filter id="filter0_d_925_2068" x="0" y="0" width="1131" height="52" filterUnits="userSpaceOnUse" color-interpolation-filters="sRGB">
<feFlood flood-opacity="0" result="BackgroundImageFix"/>
<feColorMatrix in="SourceAlpha" type="matrix" values="0 0 0 0 0 0 0 0 0 0 0 0 0 0 0 0 0 0 127 0" result="hardAlpha"/>
<feOffset dy="4"/>
<feGaussianBlur stdDeviation="2"/>
<feComposite in2="hardAlpha" operator="out"/>
<feColorMatrix type="matrix" values="0 0 0 0 0 0 0 0 0 0 0 0 0 0 0 0 0 0 0.25 0"/>
<feBlend mode="normal" in2="BackgroundImageFix" result="effect1_dropShadow_925_2068"/>
<feBlend mode="normal" in="SourceGraphic" in2="effect1_dropShadow_925_2068" result="shape"/>
</filter>
<filter id="filter1_d_925_2068" x="0" y="163" width="1131" height="52" filterUnits="userSpaceOnUse" color-interpolation-filters="sRGB">
<feFlood flood-opacity="0" result="BackgroundImageFix"/>
<feColorMatrix in="SourceAlpha" type="matrix" values="0 0 0 0 0 0 0 0 0 0 0 0 0 0 0 0 0 0 127 0" result="hardAlpha"/>
<feOffset dy="2"/>
<feGaussianBlur stdDeviation="2"/>
<feComposite in2="hardAlpha" operator="out"/>
<feColorMatrix type="matrix" values="0 0 0 0 0 0 0 0 0 0 0 0 0 0 0 0 0 0 0.25 0"/>
<feBlend mode="normal" in2="BackgroundImageFix" result="effect1_dropShadow_925_2068"/>
<feBlend mode="normal" in="SourceGraphic" in2="effect1_dropShadow_925_2068" result="shape"/>
</filter>
<filter id="filter2_d_925_2068" x="0" y="330" width="1131" height="52" filterUnits="userSpaceOnUse" color-interpolation-filters="sRGB">
<feFlood flood-opacity="0" result="BackgroundImageFix"/>
<feColorMatrix in="SourceAlpha" type="matrix" values="0 0 0 0 0 0 0 0 0 0 0 0 0 0 0 0 0 0 127 0" result="hardAlpha"/>
<feOffset dy="4"/>
<feGaussianBlur stdDeviation="2"/>
<feComposite in2="hardAlpha" operator="out"/>
<feColorMatrix type="matrix" values="0 0 0 0 0 0 0 0 0 0 0 0 0 0 0 0 0 0 0.25 0"/>
<feBlend mode="normal" in2="BackgroundImageFix" result="effect1_dropShadow_925_2068"/>
<feBlend mode="normal" in="SourceGraphic" in2="effect1_dropShadow_925_2068" result="shape"/>
</filter>
<clipPath id="clip0_925_2068">
<rect width="1123" height="44" fill="white" transform="translate(4)"/>
</clipPath>
<clipPath id="clip1_925_2068">
<rect width="1123" height="44" fill="white" transform="translate(4 165)"/>
</clipPath>
<clipPath id="clip2_925_2068">
<rect width="1123" height="44" fill="white" transform="translate(4 330)"/>
</clipPath>
</defs>
</svg>
