<svg width="1131" height="135" viewBox="0 0 1131 135" fill="none" xmlns="http://www.w3.org/2000/svg">
<g clip-path="url(#clip0_701_4155)" filter="url(#filter0_d_701_4155)">
<rect width="1123" height="44" transform="translate(4)" fill="#868686"/>
<rect x="4" width="1123" height="44" fill="#738092"/>
<path d="M37.3878 14.4545V29H35.044L28.1903 19.0923H28.0696V29H25.4347V14.4545H27.7926L34.6392 24.3693H34.767V14.4545H37.3878ZM43.2844 29.2202C42.5932 29.2202 41.9705 29.0971 41.4165 28.8509C40.8673 28.5999 40.4317 28.2306 40.1097 27.7429C39.7925 27.2552 39.6339 26.6539 39.6339 25.9389C39.6339 25.3234 39.7475 24.8144 39.9748 24.4119C40.2021 24.0095 40.5122 23.6875 40.9052 23.446C41.2982 23.2045 41.7409 23.0223 42.2333 22.8991C42.7305 22.7713 43.2442 22.679 43.7745 22.6222C44.4137 22.5559 44.9322 22.4967 45.3299 22.4446C45.7276 22.3878 46.0165 22.3026 46.1964 22.1889C46.381 22.0705 46.4734 21.8883 46.4734 21.642V21.5994C46.4734 21.0644 46.3147 20.6501 45.9975 20.3565C45.6803 20.063 45.2234 19.9162 44.6268 19.9162C43.997 19.9162 43.4975 20.0535 43.1282 20.3281C42.7636 20.6027 42.5174 20.9271 42.3896 21.3011L39.989 20.9602C40.1784 20.2973 40.4909 19.7434 40.9265 19.2983C41.3621 18.8485 41.8948 18.5123 42.5245 18.2898C43.1542 18.0625 43.8503 17.9489 44.6126 17.9489C45.1381 17.9489 45.6613 18.0104 46.1822 18.1335C46.703 18.2566 47.1789 18.4602 47.6097 18.7443C48.0406 19.0237 48.3862 19.4048 48.6467 19.8878C48.9118 20.3707 49.0444 20.9744 49.0444 21.6989V29H46.5728V27.5014H46.4876C46.3313 27.8045 46.1112 28.0885 45.8271 28.3537C45.5477 28.6141 45.195 28.8248 44.7688 28.9858C44.3474 29.142 43.8526 29.2202 43.2844 29.2202ZM43.9521 27.331C44.4682 27.331 44.9156 27.2292 45.2944 27.0256C45.6732 26.8172 45.9644 26.5426 46.168 26.2017C46.3763 25.8608 46.4805 25.4891 46.4805 25.0866V23.8011C46.4 23.8674 46.2627 23.929 46.0685 23.9858C45.8791 24.0426 45.6661 24.0923 45.4293 24.1349C45.1926 24.1776 44.9582 24.2154 44.7262 24.2486C44.4942 24.2817 44.293 24.3101 44.1225 24.3338C43.739 24.3859 43.3957 24.4711 43.0927 24.5895C42.7897 24.7079 42.5505 24.8736 42.3754 25.0866C42.2002 25.295 42.1126 25.5649 42.1126 25.8963C42.1126 26.3698 42.2854 26.7273 42.631 26.9688C42.9767 27.2102 43.417 27.331 43.9521 27.331ZM54.7688 29.2202C54.0775 29.2202 53.4549 29.0971 52.9009 28.8509C52.3517 28.5999 51.9161 28.2306 51.5941 27.7429C51.2769 27.2552 51.1183 26.6539 51.1183 25.9389C51.1183 25.3234 51.2319 24.8144 51.4592 24.4119C51.6864 24.0095 51.9966 23.6875 52.3896 23.446C52.7826 23.2045 53.2253 23.0223 53.7177 22.8991C54.2148 22.7713 54.7286 22.679 55.2589 22.6222C55.8981 22.5559 56.4165 22.4967 56.8143 22.4446C57.212 22.3878 57.5008 22.3026 57.6808 22.1889C57.8654 22.0705 57.9577 21.8883 57.9577 21.642V21.5994C57.9577 21.0644 57.7991 20.6501 57.4819 20.3565C57.1647 20.063 56.7077 19.9162 56.1112 19.9162C55.4814 19.9162 54.9819 20.0535 54.6126 20.3281C54.248 20.6027 54.0018 20.9271 53.8739 21.3011L51.4734 20.9602C51.6628 20.2973 51.9753 19.7434 52.4109 19.2983C52.8465 18.8485 53.3791 18.5123 54.0089 18.2898C54.6386 18.0625 55.3346 17.9489 56.0969 17.9489C56.6225 17.9489 57.1457 18.0104 57.6665 18.1335C58.1874 18.2566 58.6632 18.4602 59.0941 18.7443C59.525 19.0237 59.8706 19.4048 60.131 19.8878C60.3962 20.3707 60.5288 20.9744 60.5288 21.6989V29H58.0572V27.5014H57.9719C57.8157 27.8045 57.5955 28.0885 57.3114 28.3537C57.0321 28.6141 56.6793 28.8248 56.2532 28.9858C55.8318 29.142 55.337 29.2202 54.7688 29.2202ZM55.4364 27.331C55.9525 27.331 56.4 27.2292 56.7788 27.0256C57.1576 26.8172 57.4487 26.5426 57.6523 26.2017C57.8607 25.8608 57.9648 25.4891 57.9648 25.0866V23.8011C57.8844 23.8674 57.747 23.929 57.5529 23.9858C57.3635 24.0426 57.1504 24.0923 56.9137 24.1349C56.677 24.1776 56.4426 24.2154 56.2106 24.2486C55.9786 24.2817 55.7773 24.3101 55.6069 24.3338C55.2234 24.3859 54.8801 24.4711 54.5771 24.5895C54.274 24.7079 54.0349 24.8736 53.8597 25.0866C53.6845 25.295 53.5969 25.5649 53.5969 25.8963C53.5969 26.3698 53.7698 26.7273 54.1154 26.9688C54.4611 27.2102 54.9014 27.331 55.4364 27.331ZM63.114 29V18.0909H65.5714V19.9446H65.6992C65.9265 19.3196 66.3029 18.8319 66.8285 18.4815C67.354 18.1264 67.9814 17.9489 68.7106 17.9489C69.4492 17.9489 70.0719 18.1288 70.5785 18.4886C71.0898 18.8437 71.4497 19.3291 71.658 19.9446H71.7717C72.0131 19.3385 72.4203 18.8556 72.9933 18.4957C73.5709 18.1312 74.2551 17.9489 75.0458 17.9489C76.0496 17.9489 76.8687 18.2661 77.5032 18.9006C78.1377 19.535 78.4549 20.4607 78.4549 21.6776V29H75.8768V22.0753C75.8768 21.3982 75.6969 20.9034 75.337 20.5909C74.9772 20.2737 74.5368 20.1151 74.016 20.1151C73.3957 20.1151 72.9104 20.3092 72.56 20.6974C72.2144 21.081 72.0415 21.5805 72.0415 22.196V29H69.5202V21.9688C69.5202 21.4053 69.3498 20.9555 69.0089 20.6193C68.6727 20.2831 68.2324 20.1151 67.6879 20.1151C67.3185 20.1151 66.9824 20.2098 66.6793 20.3991C66.3763 20.5838 66.1348 20.8466 65.9549 21.1875C65.775 21.5237 65.685 21.9167 65.685 22.3665V29H63.114ZM82.647 29.1562C82.2161 29.1562 81.8468 29.0047 81.5391 28.7017C81.2313 28.3987 81.0798 28.0294 81.0845 27.5938C81.0798 27.1676 81.2313 26.803 81.5391 26.5C81.8468 26.197 82.2161 26.0455 82.647 26.0455C83.0637 26.0455 83.4259 26.197 83.7337 26.5C84.0462 26.803 84.2048 27.1676 84.2095 27.5938C84.2048 27.8826 84.129 28.1454 83.9822 28.3821C83.8402 28.6188 83.6508 28.8082 83.4141 28.9503C83.1821 29.0876 82.9264 29.1562 82.647 29.1562ZM82.647 21.3722C82.2161 21.3722 81.8468 21.2206 81.5391 20.9176C81.2313 20.6098 81.0798 20.2405 81.0845 19.8097C81.0798 19.3835 81.2313 19.0189 81.5391 18.7159C81.8468 18.4081 82.2161 18.2543 82.647 18.2543C83.0637 18.2543 83.4259 18.4081 83.7337 18.7159C84.0462 19.0189 84.2048 19.3835 84.2095 19.8097C84.2048 20.0937 84.129 20.3542 83.9822 20.5909C83.8402 20.8277 83.6508 21.017 83.4141 21.1591C83.1821 21.3011 82.9264 21.3722 82.647 21.3722Z" fill="white"/>
<path d="M96.9659 16.017V14.4545H107.875V16.017H103.301V29H101.54V16.017H96.9659ZM110.366 29V18.0909H112.042V29H110.366ZM111.218 16.2727C110.892 16.2727 110.61 16.1615 110.373 15.9389C110.141 15.7164 110.025 15.4489 110.025 15.1364C110.025 14.8239 110.141 14.5563 110.373 14.3338C110.61 14.1113 110.892 14 111.218 14C111.545 14 111.824 14.1113 112.056 14.3338C112.293 14.5563 112.412 14.8239 112.412 15.1364C112.412 15.4489 112.293 15.7164 112.056 15.9389C111.824 16.1615 111.545 16.2727 111.218 16.2727ZM116.788 22.4375V29H115.112V18.0909H116.732V19.7955H116.874C117.129 19.2415 117.518 18.7964 118.038 18.4602C118.559 18.1193 119.232 17.9489 120.055 17.9489C120.794 17.9489 121.44 18.1004 121.994 18.4034C122.548 18.7017 122.979 19.1562 123.287 19.767C123.595 20.3731 123.749 21.1402 123.749 22.0682V29H122.072V22.1818C122.072 21.3248 121.85 20.6572 121.405 20.179C120.96 19.696 120.349 19.4545 119.572 19.4545C119.037 19.4545 118.559 19.5705 118.138 19.8026C117.721 20.0346 117.392 20.3731 117.151 20.8182C116.909 21.2633 116.788 21.803 116.788 22.4375ZM127.5 33.0909C127.216 33.0909 126.963 33.0672 126.74 33.0199C126.518 32.9773 126.364 32.9347 126.279 32.892L126.705 31.4148C127.112 31.5189 127.472 31.5568 127.784 31.5284C128.097 31.5 128.374 31.3603 128.615 31.1094C128.862 30.8632 129.087 30.4631 129.29 29.9091L129.603 29.0568L125.569 18.0909H127.387L130.398 26.7841H130.512L133.523 18.0909H135.341L130.711 30.5909C130.502 31.1544 130.244 31.6207 129.936 31.9901C129.629 32.3641 129.271 32.6411 128.864 32.821C128.462 33.0009 128.007 33.0909 127.5 33.0909ZM144.855 22.4375V29H143.179V14.4545H144.855V19.7955H144.997C145.252 19.232 145.636 18.7846 146.147 18.4531C146.663 18.117 147.35 17.9489 148.207 17.9489C148.95 17.9489 149.601 18.098 150.16 18.3963C150.719 18.6899 151.152 19.142 151.46 19.7528C151.772 20.3589 151.929 21.1307 151.929 22.0682V29H150.252V22.1818C150.252 21.3153 150.028 20.6454 149.578 20.1719C149.133 19.6937 148.515 19.4545 147.724 19.4545C147.175 19.4545 146.682 19.5705 146.247 19.8026C145.816 20.0346 145.475 20.3731 145.224 20.8182C144.978 21.2633 144.855 21.803 144.855 22.4375ZM159.427 29.2273C158.442 29.2273 157.578 28.9929 156.835 28.5241C156.096 28.0554 155.518 27.3996 155.102 26.5568C154.69 25.714 154.484 24.7292 154.484 23.6023C154.484 22.4659 154.69 21.474 155.102 20.6264C155.518 19.7789 156.096 19.1207 156.835 18.652C157.578 18.1832 158.442 17.9489 159.427 17.9489C160.412 17.9489 161.273 18.1832 162.012 18.652C162.755 19.1207 163.333 19.7789 163.745 20.6264C164.162 21.474 164.37 22.4659 164.37 23.6023C164.37 24.7292 164.162 25.714 163.745 26.5568C163.333 27.3996 162.755 28.0554 162.012 28.5241C161.273 28.9929 160.412 29.2273 159.427 29.2273ZM159.427 27.7216C160.175 27.7216 160.79 27.5298 161.273 27.1463C161.756 26.7628 162.114 26.2585 162.346 25.6335C162.578 25.0085 162.694 24.3314 162.694 23.6023C162.694 22.8731 162.578 22.1937 162.346 21.5639C162.114 20.9342 161.756 20.4252 161.273 20.0369C160.79 19.6487 160.175 19.4545 159.427 19.4545C158.679 19.4545 158.063 19.6487 157.58 20.0369C157.097 20.4252 156.74 20.9342 156.508 21.5639C156.276 22.1937 156.16 22.8731 156.16 23.6023C156.16 24.3314 156.276 25.0085 156.508 25.6335C156.74 26.2585 157.097 26.7628 157.58 27.1463C158.063 27.5298 158.679 27.7216 159.427 27.7216ZM173.804 24.5398V18.0909H175.48V29H173.804V27.1534H173.69C173.434 27.7074 173.037 28.1785 172.497 28.5668C171.957 28.9503 171.275 29.142 170.451 29.142C169.77 29.142 169.163 28.9929 168.633 28.6946C168.103 28.3916 167.686 27.937 167.383 27.331C167.08 26.7202 166.929 25.9508 166.929 25.0227V18.0909H168.605V24.9091C168.605 25.7045 168.827 26.339 169.272 26.8125C169.722 27.286 170.295 27.5227 170.991 27.5227C171.408 27.5227 171.832 27.4162 172.262 27.2031C172.698 26.9901 173.063 26.6634 173.356 26.223C173.654 25.7827 173.804 25.2216 173.804 24.5398ZM186.277 20.5341L184.771 20.9602C184.677 20.7093 184.537 20.4654 184.352 20.2287C184.172 19.9872 183.926 19.7884 183.614 19.6321C183.301 19.4759 182.901 19.3977 182.413 19.3977C181.746 19.3977 181.189 19.5516 180.744 19.8594C180.304 20.1624 180.084 20.5483 180.084 21.017C180.084 21.4337 180.235 21.7628 180.538 22.0043C180.841 22.2457 181.315 22.447 181.959 22.608L183.578 23.0057C184.554 23.2424 185.28 23.6046 185.759 24.0923C186.237 24.5753 186.476 25.1979 186.476 25.9602C186.476 26.5852 186.296 27.1439 185.936 27.6364C185.581 28.1288 185.084 28.517 184.445 28.8011C183.805 29.0852 183.062 29.2273 182.214 29.2273C181.102 29.2273 180.181 28.9858 179.452 28.5028C178.723 28.0199 178.261 27.3144 178.067 26.3864L179.658 25.9886C179.809 26.5758 180.096 27.0161 180.517 27.3097C180.943 27.6032 181.5 27.75 182.186 27.75C182.967 27.75 183.588 27.5843 184.047 27.2528C184.511 26.9167 184.743 26.5142 184.743 26.0455C184.743 25.6667 184.61 25.3494 184.345 25.0938C184.08 24.8333 183.673 24.6392 183.124 24.5114L181.305 24.0852C180.306 23.8485 179.572 23.4815 179.104 22.9844C178.64 22.4825 178.408 21.8551 178.408 21.1023C178.408 20.4867 178.58 19.9422 178.926 19.4688C179.277 18.9953 179.752 18.6236 180.354 18.3537C180.96 18.0838 181.646 17.9489 182.413 17.9489C183.493 17.9489 184.34 18.1856 184.956 18.6591C185.576 19.1326 186.017 19.7576 186.277 20.5341ZM193.573 29.2273C192.522 29.2273 191.615 28.9953 190.853 28.5312C190.095 28.0625 189.51 27.4091 189.098 26.571C188.691 25.7282 188.488 24.7481 188.488 23.6307C188.488 22.5133 188.691 21.5284 189.098 20.6761C189.51 19.8191 190.083 19.1515 190.817 18.6733C191.556 18.1903 192.417 17.9489 193.402 17.9489C193.971 17.9489 194.532 18.0436 195.086 18.233C195.64 18.4223 196.144 18.7301 196.598 19.1562C197.053 19.5777 197.415 20.1364 197.685 20.8324C197.955 21.5284 198.09 22.3854 198.09 23.4034V24.1136H189.681V22.6648H196.385C196.385 22.0492 196.262 21.5 196.016 21.017C195.775 20.5341 195.429 20.1529 194.979 19.8736C194.534 19.5942 194.008 19.4545 193.402 19.4545C192.735 19.4545 192.157 19.6203 191.669 19.9517C191.186 20.2784 190.815 20.7045 190.554 21.2301C190.294 21.7557 190.164 22.3191 190.164 22.9205V23.8864C190.164 24.7102 190.306 25.4086 190.59 25.9815C190.879 26.5497 191.279 26.983 191.79 27.2812C192.301 27.5748 192.896 27.7216 193.573 27.7216C194.013 27.7216 194.411 27.66 194.766 27.5369C195.126 27.4091 195.436 27.2197 195.696 26.9688C195.957 26.7131 196.158 26.3958 196.3 26.017L197.919 26.4716C197.749 27.0208 197.462 27.5038 197.06 27.9205C196.658 28.3324 196.16 28.6544 195.569 28.8864C194.977 29.1136 194.311 29.2273 193.573 29.2273ZM208.367 20.5341L206.861 20.9602C206.766 20.7093 206.627 20.4654 206.442 20.2287C206.262 19.9872 206.016 19.7884 205.703 19.6321C205.391 19.4759 204.991 19.3977 204.503 19.3977C203.836 19.3977 203.279 19.5516 202.834 19.8594C202.394 20.1624 202.174 20.5483 202.174 21.017C202.174 21.4337 202.325 21.7628 202.628 22.0043C202.931 22.2457 203.405 22.447 204.049 22.608L205.668 23.0057C206.643 23.2424 207.37 23.6046 207.848 24.0923C208.327 24.5753 208.566 25.1979 208.566 25.9602C208.566 26.5852 208.386 27.1439 208.026 27.6364C207.671 28.1288 207.174 28.517 206.534 28.8011C205.895 29.0852 205.152 29.2273 204.304 29.2273C203.192 29.2273 202.271 28.9858 201.542 28.5028C200.812 28.0199 200.351 27.3144 200.157 26.3864L201.748 25.9886C201.899 26.5758 202.185 27.0161 202.607 27.3097C203.033 27.6032 203.589 27.75 204.276 27.75C205.057 27.75 205.677 27.5843 206.137 27.2528C206.601 26.9167 206.833 26.5142 206.833 26.0455C206.833 25.6667 206.7 25.3494 206.435 25.0938C206.17 24.8333 205.763 24.6392 205.213 24.5114L203.395 24.0852C202.396 23.8485 201.662 23.4815 201.194 22.9844C200.73 22.4825 200.498 21.8551 200.498 21.1023C200.498 20.4867 200.67 19.9422 201.016 19.4688C201.366 18.9953 201.842 18.6236 202.444 18.3537C203.05 18.0838 203.736 17.9489 204.503 17.9489C205.583 17.9489 206.43 18.1856 207.046 18.6591C207.666 19.1326 208.106 19.7576 208.367 20.5341ZM219.924 29.2557C219.233 29.2557 218.605 29.1255 218.042 28.8651C217.478 28.5999 217.031 28.2188 216.7 27.7216C216.368 27.2197 216.202 26.6136 216.202 25.9034C216.202 25.2784 216.326 24.7718 216.572 24.3835C216.818 23.9905 217.147 23.6828 217.559 23.4602C217.971 23.2377 218.425 23.072 218.923 22.9631C219.424 22.8494 219.929 22.7595 220.435 22.6932C221.098 22.608 221.636 22.544 222.048 22.5014C222.464 22.4541 222.767 22.3759 222.957 22.267C223.151 22.1581 223.248 21.9687 223.248 21.6989V21.642C223.248 20.9413 223.056 20.3968 222.673 20.0085C222.294 19.6203 221.719 19.4261 220.947 19.4261C220.147 19.4261 219.519 19.6013 219.065 19.9517C218.61 20.3021 218.29 20.6761 218.106 21.0739L216.515 20.5057C216.799 19.8428 217.178 19.3267 217.651 18.9574C218.129 18.5833 218.65 18.3229 219.214 18.1761C219.782 18.0246 220.341 17.9489 220.89 17.9489C221.24 17.9489 221.643 17.9915 222.097 18.0767C222.557 18.1572 222.999 18.3253 223.425 18.581C223.856 18.8366 224.214 19.2225 224.498 19.7386C224.782 20.2547 224.924 20.946 224.924 21.8125V29H223.248V27.5227H223.163C223.049 27.7595 222.86 28.0128 222.594 28.2827C222.329 28.5526 221.977 28.7822 221.536 28.9716C221.096 29.161 220.558 29.2557 219.924 29.2557ZM220.18 27.75C220.843 27.75 221.401 27.6198 221.856 27.3594C222.315 27.099 222.661 26.7628 222.893 26.3509C223.129 25.9389 223.248 25.5057 223.248 25.0511V23.517C223.177 23.6023 223.021 23.6804 222.779 23.7514C222.542 23.8177 222.268 23.8769 221.955 23.929C221.647 23.9763 221.347 24.0189 221.053 24.0568C220.764 24.09 220.53 24.1184 220.35 24.142C219.915 24.1989 219.507 24.2912 219.129 24.419C218.754 24.5421 218.451 24.7292 218.219 24.9801C217.992 25.2263 217.879 25.5625 217.879 25.9886C217.879 26.571 218.094 27.0114 218.525 27.3097C218.96 27.6032 219.512 27.75 220.18 27.75ZM231.194 29.2557C230.502 29.2557 229.875 29.1255 229.311 28.8651C228.748 28.5999 228.301 28.2188 227.969 27.7216C227.638 27.2197 227.472 26.6136 227.472 25.9034C227.472 25.2784 227.595 24.7718 227.841 24.3835C228.087 23.9905 228.417 23.6828 228.828 23.4602C229.24 23.2377 229.695 23.072 230.192 22.9631C230.694 22.8494 231.198 22.7595 231.705 22.6932C232.368 22.608 232.905 22.544 233.317 22.5014C233.734 22.4541 234.037 22.3759 234.226 22.267C234.42 22.1581 234.517 21.9687 234.517 21.6989V21.642C234.517 20.9413 234.326 20.3968 233.942 20.0085C233.563 19.6203 232.988 19.4261 232.216 19.4261C231.416 19.4261 230.789 19.6013 230.334 19.9517C229.88 20.3021 229.56 20.6761 229.375 21.0739L227.784 20.5057C228.069 19.8428 228.447 19.3267 228.921 18.9574C229.399 18.5833 229.92 18.3229 230.483 18.1761C231.051 18.0246 231.61 17.9489 232.159 17.9489C232.51 17.9489 232.912 17.9915 233.367 18.0767C233.826 18.1572 234.269 18.3253 234.695 18.581C235.126 18.8366 235.483 19.2225 235.767 19.7386C236.051 20.2547 236.194 20.946 236.194 21.8125V29H234.517V27.5227H234.432C234.319 27.7595 234.129 28.0128 233.864 28.2827C233.599 28.5526 233.246 28.7822 232.806 28.9716C232.365 29.161 231.828 29.2557 231.194 29.2557ZM231.449 27.75C232.112 27.75 232.671 27.6198 233.125 27.3594C233.585 27.099 233.93 26.7628 234.162 26.3509C234.399 25.9389 234.517 25.5057 234.517 25.0511V23.517C234.446 23.6023 234.29 23.6804 234.049 23.7514C233.812 23.8177 233.537 23.8769 233.225 23.929C232.917 23.9763 232.616 24.0189 232.323 24.0568C232.034 24.09 231.8 24.1184 231.62 24.142C231.184 24.1989 230.777 24.2912 230.398 24.419C230.024 24.5421 229.721 24.7292 229.489 24.9801C229.262 25.2263 229.148 25.5625 229.148 25.9886C229.148 26.571 229.364 27.0114 229.794 27.3097C230.23 27.6032 230.782 27.75 231.449 27.75ZM240.929 22.4375V29H239.253V18.0909H240.872V19.7955H241.014C241.27 19.2415 241.658 18.7964 242.179 18.4602C242.7 18.1193 243.372 17.9489 244.196 17.9489C244.935 17.9489 245.581 18.1004 246.135 18.4034C246.689 18.7017 247.12 19.1562 247.428 19.767C247.735 20.3731 247.889 21.1402 247.889 22.0682V29H246.213V22.1818C246.213 21.3248 245.991 20.6572 245.545 20.179C245.1 19.696 244.49 19.4545 243.713 19.4545C243.178 19.4545 242.7 19.5705 242.278 19.8026C241.862 20.0346 241.533 20.3731 241.291 20.8182C241.05 21.2633 240.929 21.803 240.929 22.4375ZM256.265 29V27.7216L262.458 19.767V19.6534H256.463V18.0909H264.617V19.4261L258.594 27.3239V27.4375H264.816V29H256.265ZM271.659 29.2273C270.608 29.2273 269.701 28.9953 268.939 28.5312C268.181 28.0625 267.596 27.4091 267.184 26.571C266.777 25.7282 266.574 24.7481 266.574 23.6307C266.574 22.5133 266.777 21.5284 267.184 20.6761C267.596 19.8191 268.169 19.1515 268.903 18.6733C269.642 18.1903 270.503 17.9489 271.488 17.9489C272.056 17.9489 272.618 18.0436 273.172 18.233C273.725 18.4223 274.23 18.7301 274.684 19.1562C275.139 19.5777 275.501 20.1364 275.771 20.8324C276.041 21.5284 276.176 22.3854 276.176 23.4034V24.1136H267.767V22.6648H274.471C274.471 22.0492 274.348 21.5 274.102 21.017C273.86 20.5341 273.515 20.1529 273.065 19.8736C272.62 19.5942 272.094 19.4545 271.488 19.4545C270.821 19.4545 270.243 19.6203 269.755 19.9517C269.272 20.2784 268.901 20.7045 268.64 21.2301C268.38 21.7557 268.25 22.3191 268.25 22.9205V23.8864C268.25 24.7102 268.392 25.4086 268.676 25.9815C268.965 26.5497 269.365 26.983 269.876 27.2812C270.387 27.5748 270.982 27.7216 271.659 27.7216C272.099 27.7216 272.497 27.66 272.852 27.5369C273.212 27.4091 273.522 27.2197 273.782 26.9688C274.043 26.7131 274.244 26.3958 274.386 26.017L276.005 26.4716C275.835 27.0208 275.548 27.5038 275.146 27.9205C274.743 28.3324 274.246 28.6544 273.654 28.8864C273.063 29.1136 272.397 29.2273 271.659 29.2273ZM283.299 29.2273C282.248 29.2273 281.342 28.9953 280.579 28.5312C279.822 28.0625 279.237 27.4091 278.825 26.571C278.418 25.7282 278.214 24.7481 278.214 23.6307C278.214 22.5133 278.418 21.5284 278.825 20.6761C279.237 19.8191 279.81 19.1515 280.544 18.6733C281.282 18.1903 282.144 17.9489 283.129 17.9489C283.697 17.9489 284.258 18.0436 284.812 18.233C285.366 18.4223 285.87 18.7301 286.325 19.1562C286.779 19.5777 287.142 20.1364 287.412 20.8324C287.681 21.5284 287.816 22.3854 287.816 23.4034V24.1136H279.407V22.6648H286.112C286.112 22.0492 285.989 21.5 285.743 21.017C285.501 20.5341 285.155 20.1529 284.706 19.8736C284.261 19.5942 283.735 19.4545 283.129 19.4545C282.461 19.4545 281.884 19.6203 281.396 19.9517C280.913 20.2784 280.541 20.7045 280.281 21.2301C280.02 21.7557 279.89 22.3191 279.89 22.9205V23.8864C279.89 24.7102 280.032 25.4086 280.316 25.9815C280.605 26.5497 281.005 26.983 281.517 27.2812C282.028 27.5748 282.622 27.7216 283.299 27.7216C283.74 27.7216 284.137 27.66 284.493 27.5369C284.852 27.4091 285.163 27.2197 285.423 26.9688C285.683 26.7131 285.885 26.3958 286.027 26.017L287.646 26.4716C287.475 27.0208 287.189 27.5038 286.787 27.9205C286.384 28.3324 285.887 28.6544 285.295 28.8864C284.703 29.1136 284.038 29.2273 283.299 29.2273Z" fill="white"/>
</g>
<rect x="4" y="61" width="1123" height="74" rx="20" fill="#EDEDED"/>
<path d="M4 81C4 69.9543 12.9543 61 24 61H695V135H24C12.9543 135 4 126.046 4 115V81Z" fill="#00A9F3"/>
<path d="M345.209 90.4545V105H342.574V93.0185H342.489L339.087 95.1918V92.777L342.702 90.4545H345.209ZM353.959 105.199C353.012 105.199 352.164 105.021 351.416 104.666C350.668 104.306 350.074 103.814 349.634 103.189C349.198 102.564 348.966 101.849 348.938 101.044H351.494C351.542 101.641 351.8 102.128 352.268 102.507C352.737 102.881 353.301 103.068 353.959 103.068C354.475 103.068 354.934 102.95 355.337 102.713C355.739 102.476 356.056 102.147 356.288 101.726C356.52 101.304 356.634 100.824 356.629 100.284C356.634 99.7348 356.518 99.2472 356.281 98.821C356.045 98.3949 355.72 98.0611 355.308 97.8196C354.896 97.5734 354.423 97.4503 353.888 97.4503C353.452 97.4455 353.024 97.526 352.602 97.6918C352.181 97.8575 351.847 98.0753 351.601 98.3452L349.222 97.9545L349.982 90.4545H358.419V92.6562H352.162L351.743 96.5128H351.828C352.098 96.1955 352.479 95.9328 352.972 95.7244C353.464 95.5114 354.004 95.4048 354.591 95.4048C355.472 95.4048 356.258 95.6132 356.949 96.0298C357.64 96.4418 358.185 97.0099 358.582 97.7344C358.98 98.4588 359.179 99.2874 359.179 100.22C359.179 101.181 358.956 102.038 358.511 102.791C358.071 103.539 357.458 104.129 356.672 104.56C355.891 104.986 354.986 105.199 353.959 105.199Z" fill="white"/>
<path d="M897.611 102.67V92.8409H899.841V102.67H897.611ZM893.811 98.8707V96.6406H903.641V98.8707H893.811ZM912.666 90.4545V105H910.031V93.0185H909.946L906.544 95.1918V92.777L910.159 90.4545H912.666ZM921.735 105.277C920.566 105.277 919.562 104.981 918.724 104.389C917.891 103.793 917.249 102.933 916.799 101.811C916.354 100.684 916.132 99.3277 916.132 97.7415C916.136 96.1553 916.361 94.8059 916.806 93.6932C917.256 92.5758 917.898 91.7235 918.731 91.1364C919.569 90.5492 920.571 90.2557 921.735 90.2557C922.9 90.2557 923.902 90.5492 924.74 91.1364C925.578 91.7235 926.219 92.5758 926.664 93.6932C927.114 94.8106 927.339 96.16 927.339 97.7415C927.339 99.3324 927.114 100.691 926.664 101.818C926.219 102.94 925.578 103.797 924.74 104.389C923.906 104.981 922.905 105.277 921.735 105.277ZM921.735 103.054C922.645 103.054 923.362 102.607 923.887 101.712C924.418 100.812 924.683 99.4886 924.683 97.7415C924.683 96.5862 924.562 95.6155 924.321 94.8295C924.079 94.0436 923.738 93.4517 923.298 93.054C922.858 92.6515 922.337 92.4503 921.735 92.4503C920.831 92.4503 920.116 92.9001 919.591 93.7997C919.065 94.6946 918.8 96.0085 918.795 97.7415C918.79 98.9015 918.906 99.8769 919.143 100.668C919.385 101.458 919.725 102.055 920.166 102.457C920.606 102.855 921.129 103.054 921.735 103.054Z" fill="#188D39"/>
<defs>
<filter id="filter0_d_701_4155" x="0" y="0" width="1131" height="52" filterUnits="userSpaceOnUse" color-interpolation-filters="sRGB">
<feFlood flood-opacity="0" result="BackgroundImageFix"/>
<feColorMatrix in="SourceAlpha" type="matrix" values="0 0 0 0 0 0 0 0 0 0 0 0 0 0 0 0 0 0 127 0" result="hardAlpha"/>
<feOffset dy="4"/>
<feGaussianBlur stdDeviation="2"/>
<feComposite in2="hardAlpha" operator="out"/>
<feColorMatrix type="matrix" values="0 0 0 0 0 0 0 0 0 0 0 0 0 0 0 0 0 0 0.25 0"/>
<feBlend mode="normal" in2="BackgroundImageFix" result="effect1_dropShadow_701_4155"/>
<feBlend mode="normal" in="SourceGraphic" in2="effect1_dropShadow_701_4155" result="shape"/>
</filter>
<clipPath id="clip0_701_4155">
<rect width="1123" height="44" fill="white" transform="translate(4)"/>
</clipPath>
</defs>
</svg>
