<svg width="1131" height="137" viewBox="0 0 1131 137" fill="none" xmlns="http://www.w3.org/2000/svg">
<g clip-path="url(#clip0_701_4154)" filter="url(#filter0_d_701_4154)">
<rect width="1123" height="44" transform="translate(4 2)" fill="#738092"/>
<rect x="4" y="2" width="1123" height="44" fill="#738092"/>
<path d="M37.3878 16.4545V31H35.044L28.1903 21.0923H28.0696V31H25.4347V16.4545H27.7926L34.6392 26.3693H34.767V16.4545H37.3878ZM43.2844 31.2202C42.5932 31.2202 41.9705 31.0971 41.4165 30.8509C40.8673 30.5999 40.4317 30.2306 40.1097 29.7429C39.7925 29.2552 39.6339 28.6539 39.6339 27.9389C39.6339 27.3234 39.7475 26.8144 39.9748 26.4119C40.2021 26.0095 40.5122 25.6875 40.9052 25.446C41.2982 25.2045 41.7409 25.0223 42.2333 24.8991C42.7305 24.7713 43.2442 24.679 43.7745 24.6222C44.4137 24.5559 44.9322 24.4967 45.3299 24.4446C45.7276 24.3878 46.0165 24.3026 46.1964 24.1889C46.381 24.0705 46.4734 23.8883 46.4734 23.642V23.5994C46.4734 23.0644 46.3147 22.6501 45.9975 22.3565C45.6803 22.063 45.2234 21.9162 44.6268 21.9162C43.997 21.9162 43.4975 22.0535 43.1282 22.3281C42.7636 22.6027 42.5174 22.9271 42.3896 23.3011L39.989 22.9602C40.1784 22.2973 40.4909 21.7434 40.9265 21.2983C41.3621 20.8485 41.8948 20.5123 42.5245 20.2898C43.1542 20.0625 43.8503 19.9489 44.6126 19.9489C45.1381 19.9489 45.6613 20.0104 46.1822 20.1335C46.703 20.2566 47.1789 20.4602 47.6097 20.7443C48.0406 21.0237 48.3862 21.4048 48.6467 21.8878C48.9118 22.3707 49.0444 22.9744 49.0444 23.6989V31H46.5728V29.5014H46.4876C46.3313 29.8045 46.1112 30.0885 45.8271 30.3537C45.5477 30.6141 45.195 30.8248 44.7688 30.9858C44.3474 31.142 43.8526 31.2202 43.2844 31.2202ZM43.9521 29.331C44.4682 29.331 44.9156 29.2292 45.2944 29.0256C45.6732 28.8172 45.9644 28.5426 46.168 28.2017C46.3763 27.8608 46.4805 27.4891 46.4805 27.0866V25.8011C46.4 25.8674 46.2627 25.929 46.0685 25.9858C45.8791 26.0426 45.6661 26.0923 45.4293 26.1349C45.1926 26.1776 44.9582 26.2154 44.7262 26.2486C44.4942 26.2817 44.293 26.3101 44.1225 26.3338C43.739 26.3859 43.3957 26.4711 43.0927 26.5895C42.7897 26.7079 42.5505 26.8736 42.3754 27.0866C42.2002 27.295 42.1126 27.5649 42.1126 27.8963C42.1126 28.3698 42.2854 28.7273 42.631 28.9688C42.9767 29.2102 43.417 29.331 43.9521 29.331ZM54.7688 31.2202C54.0775 31.2202 53.4549 31.0971 52.9009 30.8509C52.3517 30.5999 51.9161 30.2306 51.5941 29.7429C51.2769 29.2552 51.1183 28.6539 51.1183 27.9389C51.1183 27.3234 51.2319 26.8144 51.4592 26.4119C51.6864 26.0095 51.9966 25.6875 52.3896 25.446C52.7826 25.2045 53.2253 25.0223 53.7177 24.8991C54.2148 24.7713 54.7286 24.679 55.2589 24.6222C55.8981 24.5559 56.4165 24.4967 56.8143 24.4446C57.212 24.3878 57.5008 24.3026 57.6808 24.1889C57.8654 24.0705 57.9577 23.8883 57.9577 23.642V23.5994C57.9577 23.0644 57.7991 22.6501 57.4819 22.3565C57.1647 22.063 56.7077 21.9162 56.1112 21.9162C55.4814 21.9162 54.9819 22.0535 54.6126 22.3281C54.248 22.6027 54.0018 22.9271 53.8739 23.3011L51.4734 22.9602C51.6628 22.2973 51.9753 21.7434 52.4109 21.2983C52.8465 20.8485 53.3791 20.5123 54.0089 20.2898C54.6386 20.0625 55.3346 19.9489 56.0969 19.9489C56.6225 19.9489 57.1457 20.0104 57.6665 20.1335C58.1874 20.2566 58.6632 20.4602 59.0941 20.7443C59.525 21.0237 59.8706 21.4048 60.131 21.8878C60.3962 22.3707 60.5288 22.9744 60.5288 23.6989V31H58.0572V29.5014H57.9719C57.8157 29.8045 57.5955 30.0885 57.3114 30.3537C57.0321 30.6141 56.6793 30.8248 56.2532 30.9858C55.8318 31.142 55.337 31.2202 54.7688 31.2202ZM55.4364 29.331C55.9525 29.331 56.4 29.2292 56.7788 29.0256C57.1576 28.8172 57.4487 28.5426 57.6523 28.2017C57.8607 27.8608 57.9648 27.4891 57.9648 27.0866V25.8011C57.8844 25.8674 57.747 25.929 57.5529 25.9858C57.3635 26.0426 57.1504 26.0923 56.9137 26.1349C56.677 26.1776 56.4426 26.2154 56.2106 26.2486C55.9786 26.2817 55.7773 26.3101 55.6069 26.3338C55.2234 26.3859 54.8801 26.4711 54.5771 26.5895C54.274 26.7079 54.0349 26.8736 53.8597 27.0866C53.6845 27.295 53.5969 27.5649 53.5969 27.8963C53.5969 28.3698 53.7698 28.7273 54.1154 28.9688C54.4611 29.2102 54.9014 29.331 55.4364 29.331ZM63.114 31V20.0909H65.5714V21.9446H65.6992C65.9265 21.3196 66.3029 20.8319 66.8285 20.4815C67.354 20.1264 67.9814 19.9489 68.7106 19.9489C69.4492 19.9489 70.0719 20.1288 70.5785 20.4886C71.0898 20.8437 71.4497 21.3291 71.658 21.9446H71.7717C72.0131 21.3385 72.4203 20.8556 72.9933 20.4957C73.5709 20.1312 74.2551 19.9489 75.0458 19.9489C76.0496 19.9489 76.8687 20.2661 77.5032 20.9006C78.1377 21.535 78.4549 22.4607 78.4549 23.6776V31H75.8768V24.0753C75.8768 23.3982 75.6969 22.9034 75.337 22.5909C74.9772 22.2737 74.5368 22.1151 74.016 22.1151C73.3957 22.1151 72.9104 22.3092 72.56 22.6974C72.2144 23.081 72.0415 23.5805 72.0415 24.196V31H69.5202V23.9688C69.5202 23.4053 69.3498 22.9555 69.0089 22.6193C68.6727 22.2831 68.2324 22.1151 67.6879 22.1151C67.3185 22.1151 66.9824 22.2098 66.6793 22.3991C66.3763 22.5838 66.1348 22.8466 65.9549 23.1875C65.775 23.5237 65.685 23.9167 65.685 24.3665V31H63.114ZM82.647 31.1562C82.2161 31.1562 81.8468 31.0047 81.5391 30.7017C81.2313 30.3987 81.0798 30.0294 81.0845 29.5938C81.0798 29.1676 81.2313 28.803 81.5391 28.5C81.8468 28.197 82.2161 28.0455 82.647 28.0455C83.0637 28.0455 83.4259 28.197 83.7337 28.5C84.0462 28.803 84.2048 29.1676 84.2095 29.5938C84.2048 29.8826 84.129 30.1454 83.9822 30.3821C83.8402 30.6188 83.6508 30.8082 83.4141 30.9503C83.1821 31.0876 82.9264 31.1562 82.647 31.1562ZM82.647 23.3722C82.2161 23.3722 81.8468 23.2206 81.5391 22.9176C81.2313 22.6098 81.0798 22.2405 81.0845 21.8097C81.0798 21.3835 81.2313 21.0189 81.5391 20.7159C81.8468 20.4081 82.2161 20.2543 82.647 20.2543C83.0637 20.2543 83.4259 20.4081 83.7337 20.7159C84.0462 21.0189 84.2048 21.3835 84.2095 21.8097C84.2048 22.0937 84.129 22.3542 83.9822 22.5909C83.8402 22.8277 83.6508 23.017 83.4141 23.1591C83.1821 23.3011 82.9264 23.3722 82.647 23.3722Z" fill="white"/>
<path d="M110.034 23.7273C110.034 25.2614 109.757 26.5871 109.203 27.7045C108.649 28.822 107.889 29.6837 106.923 30.2898C105.957 30.8958 104.854 31.1989 103.614 31.1989C102.373 31.1989 101.27 30.8958 100.304 30.2898C99.3381 29.6837 98.5781 28.822 98.0241 27.7045C97.4702 26.5871 97.1932 25.2614 97.1932 23.7273C97.1932 22.1932 97.4702 20.8674 98.0241 19.75C98.5781 18.6326 99.3381 17.7708 100.304 17.1648C101.27 16.5587 102.373 16.2557 103.614 16.2557C104.854 16.2557 105.957 16.5587 106.923 17.1648C107.889 17.7708 108.649 18.6326 109.203 19.75C109.757 20.8674 110.034 22.1932 110.034 23.7273ZM108.33 23.7273C108.33 22.4678 108.119 21.4048 107.697 20.5384C107.281 19.6719 106.715 19.0161 106 18.571C105.29 18.1259 104.494 17.9034 103.614 17.9034C102.733 17.9034 101.935 18.1259 101.22 18.571C100.51 19.0161 99.9441 19.6719 99.5227 20.5384C99.1061 21.4048 98.8977 22.4678 98.8977 23.7273C98.8977 24.9867 99.1061 26.0497 99.5227 26.9162C99.9441 27.7827 100.51 28.4384 101.22 28.8835C101.935 29.3286 102.733 29.5511 103.614 29.5511C104.494 29.5511 105.29 29.3286 106 28.8835C106.715 28.4384 107.281 27.7827 107.697 26.9162C108.119 26.0497 108.33 24.9867 108.33 23.7273ZM119.643 26.5398V20.0909H121.32V31H119.643V29.1534H119.53C119.274 29.7074 118.876 30.1785 118.337 30.5668C117.797 30.9503 117.115 31.142 116.291 31.142C115.609 31.142 115.003 30.9929 114.473 30.6946C113.943 30.3916 113.526 29.937 113.223 29.331C112.92 28.7202 112.768 27.9508 112.768 27.0227V20.0909H114.445V26.9091C114.445 27.7045 114.667 28.339 115.112 28.8125C115.562 29.286 116.135 29.5227 116.831 29.5227C117.248 29.5227 117.671 29.4162 118.102 29.2031C118.538 28.9901 118.902 28.6634 119.196 28.223C119.494 27.7827 119.643 27.2216 119.643 26.5398ZM128.509 31.2273C127.6 31.2273 126.797 30.9976 126.101 30.5384C125.405 30.0743 124.861 29.4209 124.468 28.5781C124.075 27.7306 123.878 26.7292 123.878 25.5739C123.878 24.428 124.075 23.4337 124.468 22.5909C124.861 21.7481 125.408 21.0971 126.108 20.6378C126.809 20.1785 127.619 19.9489 128.537 19.9489C129.248 19.9489 129.809 20.0672 130.221 20.304C130.637 20.536 130.954 20.8011 131.172 21.0994C131.395 21.393 131.568 21.6345 131.691 21.8239H131.833V16.4545H133.509V31H131.89V29.3239H131.691C131.568 29.5227 131.392 29.7737 131.165 30.0767C130.938 30.375 130.614 30.6425 130.192 30.8793C129.771 31.1113 129.21 31.2273 128.509 31.2273ZM128.736 29.7216C129.408 29.7216 129.977 29.5464 130.441 29.196C130.905 28.8409 131.257 28.3509 131.499 27.7259C131.74 27.0961 131.861 26.3693 131.861 25.5455C131.861 24.7311 131.743 24.0185 131.506 23.4077C131.269 22.7921 130.919 22.3139 130.455 21.973C129.991 21.6274 129.418 21.4545 128.736 21.4545C128.026 21.4545 127.434 21.6368 126.961 22.0014C126.492 22.3613 126.139 22.8513 125.902 23.4716C125.67 24.0871 125.554 24.7784 125.554 25.5455C125.554 26.322 125.673 27.0275 125.909 27.6619C126.151 28.2917 126.506 28.7936 126.975 29.1676C127.448 29.5369 128.035 29.7216 128.736 29.7216ZM141.385 31.2273C140.334 31.2273 139.427 30.9953 138.665 30.5312C137.908 30.0625 137.323 29.4091 136.911 28.571C136.504 27.7282 136.3 26.7481 136.3 25.6307C136.3 24.5133 136.504 23.5284 136.911 22.6761C137.323 21.8191 137.896 21.1515 138.63 20.6733C139.368 20.1903 140.23 19.9489 141.215 19.9489C141.783 19.9489 142.344 20.0436 142.898 20.233C143.452 20.4223 143.956 20.7301 144.411 21.1562C144.865 21.5777 145.228 22.1364 145.498 22.8324C145.767 23.5284 145.902 24.3854 145.902 25.4034V26.1136H137.493V24.6648H144.198C144.198 24.0492 144.075 23.5 143.828 23.017C143.587 22.5341 143.241 22.1529 142.792 21.8736C142.346 21.5942 141.821 21.4545 141.215 21.4545C140.547 21.4545 139.97 21.6203 139.482 21.9517C138.999 22.2784 138.627 22.7045 138.367 23.2301C138.106 23.7557 137.976 24.3191 137.976 24.9205V25.8864C137.976 26.7102 138.118 27.4086 138.402 27.9815C138.691 28.5497 139.091 28.983 139.603 29.2812C140.114 29.5748 140.708 29.7216 141.385 29.7216C141.826 29.7216 142.223 29.66 142.578 29.5369C142.938 29.4091 143.248 29.2197 143.509 28.9688C143.769 28.7131 143.971 28.3958 144.113 28.017L145.732 28.4716C145.561 29.0208 145.275 29.5038 144.873 29.9205C144.47 30.3324 143.973 30.6544 143.381 30.8864C142.789 31.1136 142.124 31.2273 141.385 31.2273ZM148.452 31V20.0909H150.071V21.7386H150.185C150.384 21.1989 150.744 20.7609 151.265 20.4247C151.785 20.0885 152.373 19.9205 153.026 19.9205C153.149 19.9205 153.303 19.9228 153.488 19.9276C153.672 19.9323 153.812 19.9394 153.907 19.9489V21.6534C153.85 21.6392 153.72 21.6179 153.516 21.5895C153.317 21.5563 153.106 21.5398 152.884 21.5398C152.354 21.5398 151.88 21.651 151.463 21.8736C151.051 22.0914 150.725 22.3944 150.483 22.7827C150.247 23.1662 150.128 23.6042 150.128 24.0966V31H148.452ZM160.135 31.2273C159.084 31.2273 158.177 30.9953 157.415 30.5312C156.658 30.0625 156.073 29.4091 155.661 28.571C155.254 27.7282 155.05 26.7481 155.05 25.6307C155.05 24.5133 155.254 23.5284 155.661 22.6761C156.073 21.8191 156.646 21.1515 157.38 20.6733C158.118 20.1903 158.98 19.9489 159.965 19.9489C160.533 19.9489 161.094 20.0436 161.648 20.233C162.202 20.4223 162.706 20.7301 163.161 21.1562C163.615 21.5777 163.978 22.1364 164.248 22.8324C164.517 23.5284 164.652 24.3854 164.652 25.4034V26.1136H156.243V24.6648H162.948C162.948 24.0492 162.825 23.5 162.578 23.017C162.337 22.5341 161.991 22.1529 161.542 21.8736C161.096 21.5942 160.571 21.4545 159.965 21.4545C159.297 21.4545 158.72 21.6203 158.232 21.9517C157.749 22.2784 157.377 22.7045 157.117 23.2301C156.856 23.7557 156.726 24.3191 156.726 24.9205V25.8864C156.726 26.7102 156.868 27.4086 157.152 27.9815C157.441 28.5497 157.841 28.983 158.353 29.2812C158.864 29.5748 159.458 29.7216 160.135 29.7216C160.576 29.7216 160.973 29.66 161.328 29.5369C161.688 29.4091 161.998 29.2197 162.259 28.9688C162.519 28.7131 162.721 28.3958 162.863 28.017L164.482 28.4716C164.311 29.0208 164.025 29.5038 163.623 29.9205C163.22 30.3324 162.723 30.6544 162.131 30.8864C161.539 31.1136 160.874 31.2273 160.135 31.2273ZM168.878 24.4375V31H167.202V20.0909H168.821V21.7955H168.963C169.219 21.2415 169.607 20.7964 170.128 20.4602C170.649 20.1193 171.321 19.9489 172.145 19.9489C172.884 19.9489 173.53 20.1004 174.084 20.4034C174.638 20.7017 175.069 21.1562 175.377 21.767C175.685 22.3731 175.838 23.1402 175.838 24.0682V31H174.162V24.1818C174.162 23.3248 173.94 22.6572 173.495 22.179C173.05 21.696 172.439 21.4545 171.662 21.4545C171.127 21.4545 170.649 21.5705 170.228 21.8026C169.811 22.0346 169.482 22.3731 169.24 22.8182C168.999 23.2633 168.878 23.803 168.878 24.4375ZM181.373 31L178.049 20.0909H179.81L182.168 28.4432H182.282L184.612 20.0909H186.401L188.702 28.4148H188.816L191.174 20.0909H192.935L189.612 31H187.964L185.577 22.6193H185.407L183.021 31H181.373ZM199.212 31.2273C198.227 31.2273 197.363 30.9929 196.62 30.5241C195.881 30.0554 195.303 29.3996 194.887 28.5568C194.475 27.714 194.269 26.7292 194.269 25.6023C194.269 24.4659 194.475 23.474 194.887 22.6264C195.303 21.7789 195.881 21.1207 196.62 20.652C197.363 20.1832 198.227 19.9489 199.212 19.9489C200.197 19.9489 201.059 20.1832 201.797 20.652C202.541 21.1207 203.118 21.7789 203.53 22.6264C203.947 23.474 204.155 24.4659 204.155 25.6023C204.155 26.7292 203.947 27.714 203.53 28.5568C203.118 29.3996 202.541 30.0554 201.797 30.5241C201.059 30.9929 200.197 31.2273 199.212 31.2273ZM199.212 29.7216C199.96 29.7216 200.576 29.5298 201.059 29.1463C201.542 28.7628 201.899 28.2585 202.131 27.6335C202.363 27.0085 202.479 26.3314 202.479 25.6023C202.479 24.8731 202.363 24.1937 202.131 23.5639C201.899 22.9342 201.542 22.4252 201.059 22.0369C200.576 21.6487 199.96 21.4545 199.212 21.4545C198.464 21.4545 197.848 21.6487 197.365 22.0369C196.882 22.4252 196.525 22.9342 196.293 23.5639C196.061 24.1937 195.945 24.8731 195.945 25.6023C195.945 26.3314 196.061 27.0085 196.293 27.6335C196.525 28.2585 196.882 28.7628 197.365 29.1463C197.848 29.5298 198.464 29.7216 199.212 29.7216ZM208.39 24.4375V31H206.714V20.0909H208.333V21.7955H208.475C208.731 21.2415 209.119 20.7964 209.64 20.4602C210.161 20.1193 210.833 19.9489 211.657 19.9489C212.396 19.9489 213.042 20.1004 213.596 20.4034C214.15 20.7017 214.581 21.1562 214.888 21.767C215.196 22.3731 215.35 23.1402 215.35 24.0682V31H213.674V24.1818C213.674 23.3248 213.451 22.6572 213.006 22.179C212.561 21.696 211.951 21.4545 211.174 21.4545C210.639 21.4545 210.161 21.5705 209.739 21.8026C209.323 22.0346 208.994 22.3731 208.752 22.8182C208.511 23.2633 208.39 23.803 208.39 24.4375ZM218.413 31V20.0909H220.089V31H218.413ZM219.265 18.2727C218.939 18.2727 218.657 18.1615 218.42 17.9389C218.188 17.7164 218.072 17.4489 218.072 17.1364C218.072 16.8239 218.188 16.5563 218.42 16.3338C218.657 16.1113 218.939 16 219.265 16C219.592 16 219.871 16.1113 220.103 16.3338C220.34 16.5563 220.458 16.8239 220.458 17.1364C220.458 17.4489 220.34 17.7164 220.103 17.9389C219.871 18.1615 219.592 18.2727 219.265 18.2727ZM224.835 24.4375V31H223.159V20.0909H224.778V21.7955H224.92C225.176 21.2415 225.564 20.7964 226.085 20.4602C226.606 20.1193 227.278 19.9489 228.102 19.9489C228.841 19.9489 229.487 20.1004 230.041 20.4034C230.595 20.7017 231.026 21.1562 231.334 21.767C231.642 22.3731 231.795 23.1402 231.795 24.0682V31H230.119V24.1818C230.119 23.3248 229.897 22.6572 229.452 22.179C229.007 21.696 228.396 21.4545 227.619 21.4545C227.084 21.4545 226.606 21.5705 226.185 21.8026C225.768 22.0346 225.439 22.3731 225.197 22.8182C224.956 23.2633 224.835 23.803 224.835 24.4375ZM239.262 35.3182C238.452 35.3182 237.756 35.214 237.174 35.0057C236.591 34.8021 236.106 34.5322 235.718 34.196C235.334 33.8646 235.029 33.5095 234.801 33.1307L236.137 32.1932C236.288 32.392 236.48 32.6193 236.712 32.875C236.944 33.1354 237.261 33.3603 237.664 33.5497C238.071 33.7438 238.604 33.8409 239.262 33.8409C240.142 33.8409 240.869 33.6278 241.442 33.2017C242.015 32.7756 242.301 32.108 242.301 31.1989V28.983H242.159C242.036 29.1818 241.861 29.428 241.634 29.7216C241.411 30.0104 241.089 30.2685 240.668 30.4957C240.251 30.7183 239.688 30.8295 238.978 30.8295C238.097 30.8295 237.306 30.6212 236.605 30.2045C235.909 29.7879 235.358 29.1818 234.951 28.3864C234.548 27.5909 234.347 26.625 234.347 25.4886C234.347 24.3712 234.543 23.3982 234.936 22.5696C235.329 21.7363 235.876 21.0923 236.577 20.6378C237.278 20.1785 238.087 19.9489 239.006 19.9489C239.716 19.9489 240.28 20.0672 240.696 20.304C241.118 20.536 241.44 20.8011 241.662 21.0994C241.89 21.393 242.065 21.6345 242.188 21.8239H242.358V20.0909H243.978V31.3125C243.978 32.25 243.765 33.0123 243.338 33.5994C242.917 34.1913 242.349 34.6245 241.634 34.8991C240.924 35.1785 240.133 35.3182 239.262 35.3182ZM239.205 29.3239C239.877 29.3239 240.445 29.17 240.909 28.8622C241.373 28.5545 241.726 28.1117 241.968 27.5341C242.209 26.9564 242.33 26.2652 242.33 25.4602C242.33 24.6742 242.212 23.9806 241.975 23.3793C241.738 22.7779 241.388 22.3068 240.924 21.9659C240.46 21.625 239.887 21.4545 239.205 21.4545C238.495 21.4545 237.903 21.6345 237.429 21.9943C236.961 22.3542 236.608 22.8371 236.371 23.4432C236.139 24.0492 236.023 24.7216 236.023 25.4602C236.023 26.2178 236.141 26.8878 236.378 27.4702C236.62 28.0478 236.975 28.5024 237.444 28.8338C237.917 29.1605 238.504 29.3239 239.205 29.3239ZM251.62 31.2273C250.569 31.2273 249.662 30.9953 248.9 30.5312C248.142 30.0625 247.557 29.4091 247.145 28.571C246.738 27.7282 246.534 26.7481 246.534 25.6307C246.534 24.5133 246.738 23.5284 247.145 22.6761C247.557 21.8191 248.13 21.1515 248.864 20.6733C249.603 20.1903 250.464 19.9489 251.449 19.9489C252.017 19.9489 252.578 20.0436 253.132 20.233C253.686 20.4223 254.191 20.7301 254.645 21.1562C255.1 21.5777 255.462 22.1364 255.732 22.8324C256.002 23.5284 256.137 24.3854 256.137 25.4034V26.1136H247.728V24.6648H254.432C254.432 24.0492 254.309 23.5 254.063 23.017C253.821 22.5341 253.476 22.1529 253.026 21.8736C252.581 21.5942 252.055 21.4545 251.449 21.4545C250.782 21.4545 250.204 21.6203 249.716 21.9517C249.233 22.2784 248.862 22.7045 248.601 23.2301C248.341 23.7557 248.211 24.3191 248.211 24.9205V25.8864C248.211 26.7102 248.353 27.4086 248.637 27.9815C248.926 28.5497 249.326 28.983 249.837 29.2812C250.348 29.5748 250.943 29.7216 251.62 29.7216C252.06 29.7216 252.458 29.66 252.813 29.5369C253.173 29.4091 253.483 29.2197 253.743 28.9688C254.004 28.7131 254.205 28.3958 254.347 28.017L255.966 28.4716C255.796 29.0208 255.509 29.5038 255.107 29.9205C254.704 30.3324 254.207 30.6544 253.615 30.8864C253.024 31.1136 252.358 31.2273 251.62 31.2273ZM260.363 24.4375V31H258.686V20.0909H260.306V21.7955H260.448C260.703 21.2415 261.092 20.7964 261.613 20.4602C262.133 20.1193 262.806 19.9489 263.63 19.9489C264.368 19.9489 265.015 20.1004 265.569 20.4034C266.123 20.7017 266.553 21.1562 266.861 21.767C267.169 22.3731 267.323 23.1402 267.323 24.0682V31H265.647V24.1818C265.647 23.3248 265.424 22.6572 264.979 22.179C264.534 21.696 263.923 21.4545 263.147 21.4545C262.612 21.4545 262.133 21.5705 261.712 21.8026C261.295 22.0346 260.966 22.3731 260.725 22.8182C260.483 23.2633 260.363 23.803 260.363 24.4375Z" fill="white"/>
</g>
<rect x="4" y="63" width="1123" height="74" rx="20" fill="#00A9F3"/>
<path d="M541.209 92.4545V107H538.574V95.0185H538.489L535.087 97.1918V94.777L538.702 92.4545H541.209ZM550.278 107.277C549.109 107.277 548.105 106.981 547.267 106.389C546.434 105.793 545.792 104.933 545.342 103.811C544.897 102.684 544.675 101.328 544.675 99.7415C544.679 98.1553 544.904 96.8059 545.349 95.6932C545.799 94.5758 546.441 93.7235 547.274 93.1364C548.112 92.5492 549.114 92.2557 550.278 92.2557C551.443 92.2557 552.445 92.5492 553.283 93.1364C554.121 93.7235 554.762 94.5758 555.207 95.6932C555.657 96.8106 555.882 98.16 555.882 99.7415C555.882 101.332 555.657 102.691 555.207 103.818C554.762 104.94 554.121 105.797 553.283 106.389C552.449 106.981 551.448 107.277 550.278 107.277ZM550.278 105.054C551.188 105.054 551.905 104.607 552.43 103.712C552.961 102.812 553.226 101.489 553.226 99.7415C553.226 98.5862 553.105 97.6155 552.864 96.8295C552.622 96.0436 552.281 95.4517 551.841 95.054C551.401 94.6515 550.88 94.4503 550.278 94.4503C549.374 94.4503 548.659 94.9001 548.134 95.7997C547.608 96.6946 547.343 98.0085 547.338 99.7415C547.333 100.902 547.449 101.877 547.686 102.668C547.928 103.458 548.268 104.055 548.709 104.457C549.149 104.855 549.672 105.054 550.278 105.054ZM563.618 107.277C562.449 107.277 561.445 106.981 560.607 106.389C559.774 105.793 559.132 104.933 558.682 103.811C558.237 102.684 558.015 101.328 558.015 99.7415C558.019 98.1553 558.244 96.8059 558.689 95.6932C559.139 94.5758 559.781 93.7235 560.614 93.1364C561.452 92.5492 562.453 92.2557 563.618 92.2557C564.783 92.2557 565.784 92.5492 566.623 93.1364C567.461 93.7235 568.102 94.5758 568.547 95.6932C568.997 96.8106 569.222 98.16 569.222 99.7415C569.222 101.332 568.997 102.691 568.547 103.818C568.102 104.94 567.461 105.797 566.623 106.389C565.789 106.981 564.788 107.277 563.618 107.277ZM563.618 105.054C564.527 105.054 565.245 104.607 565.77 103.712C566.301 102.812 566.566 101.489 566.566 99.7415C566.566 98.5862 566.445 97.6155 566.203 96.8295C565.962 96.0436 565.621 95.4517 565.181 95.054C564.74 94.6515 564.22 94.4503 563.618 94.4503C562.714 94.4503 561.999 94.9001 561.473 95.7997C560.948 96.6946 560.683 98.0085 560.678 99.7415C560.673 100.902 560.789 101.877 561.026 102.668C561.267 103.458 561.608 104.055 562.049 104.457C562.489 104.855 563.012 105.054 563.618 105.054Z" fill="white"/>
<defs>
<filter id="filter0_d_701_4154" x="0" y="0" width="1131" height="52" filterUnits="userSpaceOnUse" color-interpolation-filters="sRGB">
<feFlood flood-opacity="0" result="BackgroundImageFix"/>
<feColorMatrix in="SourceAlpha" type="matrix" values="0 0 0 0 0 0 0 0 0 0 0 0 0 0 0 0 0 0 127 0" result="hardAlpha"/>
<feOffset dy="2"/>
<feGaussianBlur stdDeviation="2"/>
<feComposite in2="hardAlpha" operator="out"/>
<feColorMatrix type="matrix" values="0 0 0 0 0 0 0 0 0 0 0 0 0 0 0 0 0 0 0.25 0"/>
<feBlend mode="normal" in2="BackgroundImageFix" result="effect1_dropShadow_701_4154"/>
<feBlend mode="normal" in="SourceGraphic" in2="effect1_dropShadow_701_4154" result="shape"/>
</filter>
<clipPath id="clip0_701_4154">
<rect width="1123" height="44" fill="white" transform="translate(4 2)"/>
</clipPath>
</defs>
</svg>
