<svg width="1131" height="135" viewBox="0 0 1131 135" fill="none" xmlns="http://www.w3.org/2000/svg">
<g clip-path="url(#clip0_701_4145)" filter="url(#filter0_d_701_4145)">
<rect width="1123" height="44" transform="translate(4)" fill="#868686"/>
<rect x="4" width="1123" height="44" fill="#738092"/>
<path d="M37.3878 14.4545V29H35.044L28.1903 19.0923H28.0696V29H25.4347V14.4545H27.7926L34.6392 24.3693H34.767V14.4545H37.3878ZM43.2844 29.2202C42.5932 29.2202 41.9705 29.0971 41.4165 28.8509C40.8673 28.5999 40.4317 28.2306 40.1097 27.7429C39.7925 27.2552 39.6339 26.6539 39.6339 25.9389C39.6339 25.3234 39.7475 24.8144 39.9748 24.4119C40.2021 24.0095 40.5122 23.6875 40.9052 23.446C41.2982 23.2045 41.7409 23.0223 42.2333 22.8991C42.7305 22.7713 43.2442 22.679 43.7745 22.6222C44.4137 22.5559 44.9322 22.4967 45.3299 22.4446C45.7276 22.3878 46.0165 22.3026 46.1964 22.1889C46.381 22.0705 46.4734 21.8883 46.4734 21.642V21.5994C46.4734 21.0644 46.3147 20.6501 45.9975 20.3565C45.6803 20.063 45.2234 19.9162 44.6268 19.9162C43.997 19.9162 43.4975 20.0535 43.1282 20.3281C42.7636 20.6027 42.5174 20.9271 42.3896 21.3011L39.989 20.9602C40.1784 20.2973 40.4909 19.7434 40.9265 19.2983C41.3621 18.8485 41.8948 18.5123 42.5245 18.2898C43.1542 18.0625 43.8503 17.9489 44.6126 17.9489C45.1381 17.9489 45.6613 18.0104 46.1822 18.1335C46.703 18.2566 47.1789 18.4602 47.6097 18.7443C48.0406 19.0237 48.3862 19.4048 48.6467 19.8878C48.9118 20.3707 49.0444 20.9744 49.0444 21.6989V29H46.5728V27.5014H46.4876C46.3313 27.8045 46.1112 28.0885 45.8271 28.3537C45.5477 28.6141 45.195 28.8248 44.7688 28.9858C44.3474 29.142 43.8526 29.2202 43.2844 29.2202ZM43.9521 27.331C44.4682 27.331 44.9156 27.2292 45.2944 27.0256C45.6732 26.8172 45.9644 26.5426 46.168 26.2017C46.3763 25.8608 46.4805 25.4891 46.4805 25.0866V23.8011C46.4 23.8674 46.2627 23.929 46.0685 23.9858C45.8791 24.0426 45.6661 24.0923 45.4293 24.1349C45.1926 24.1776 44.9582 24.2154 44.7262 24.2486C44.4942 24.2817 44.293 24.3101 44.1225 24.3338C43.739 24.3859 43.3957 24.4711 43.0927 24.5895C42.7897 24.7079 42.5505 24.8736 42.3754 25.0866C42.2002 25.295 42.1126 25.5649 42.1126 25.8963C42.1126 26.3698 42.2854 26.7273 42.631 26.9688C42.9767 27.2102 43.417 27.331 43.9521 27.331ZM54.7688 29.2202C54.0775 29.2202 53.4549 29.0971 52.9009 28.8509C52.3517 28.5999 51.9161 28.2306 51.5941 27.7429C51.2769 27.2552 51.1183 26.6539 51.1183 25.9389C51.1183 25.3234 51.2319 24.8144 51.4592 24.4119C51.6864 24.0095 51.9966 23.6875 52.3896 23.446C52.7826 23.2045 53.2253 23.0223 53.7177 22.8991C54.2148 22.7713 54.7286 22.679 55.2589 22.6222C55.8981 22.5559 56.4165 22.4967 56.8143 22.4446C57.212 22.3878 57.5008 22.3026 57.6808 22.1889C57.8654 22.0705 57.9577 21.8883 57.9577 21.642V21.5994C57.9577 21.0644 57.7991 20.6501 57.4819 20.3565C57.1647 20.063 56.7077 19.9162 56.1112 19.9162C55.4814 19.9162 54.9819 20.0535 54.6126 20.3281C54.248 20.6027 54.0018 20.9271 53.8739 21.3011L51.4734 20.9602C51.6628 20.2973 51.9753 19.7434 52.4109 19.2983C52.8465 18.8485 53.3791 18.5123 54.0089 18.2898C54.6386 18.0625 55.3346 17.9489 56.0969 17.9489C56.6225 17.9489 57.1457 18.0104 57.6665 18.1335C58.1874 18.2566 58.6632 18.4602 59.0941 18.7443C59.525 19.0237 59.8706 19.4048 60.131 19.8878C60.3962 20.3707 60.5288 20.9744 60.5288 21.6989V29H58.0572V27.5014H57.9719C57.8157 27.8045 57.5955 28.0885 57.3114 28.3537C57.0321 28.6141 56.6793 28.8248 56.2532 28.9858C55.8318 29.142 55.337 29.2202 54.7688 29.2202ZM55.4364 27.331C55.9525 27.331 56.4 27.2292 56.7788 27.0256C57.1576 26.8172 57.4487 26.5426 57.6523 26.2017C57.8607 25.8608 57.9648 25.4891 57.9648 25.0866V23.8011C57.8844 23.8674 57.747 23.929 57.5529 23.9858C57.3635 24.0426 57.1504 24.0923 56.9137 24.1349C56.677 24.1776 56.4426 24.2154 56.2106 24.2486C55.9786 24.2817 55.7773 24.3101 55.6069 24.3338C55.2234 24.3859 54.8801 24.4711 54.5771 24.5895C54.274 24.7079 54.0349 24.8736 53.8597 25.0866C53.6845 25.295 53.5969 25.5649 53.5969 25.8963C53.5969 26.3698 53.7698 26.7273 54.1154 26.9688C54.4611 27.2102 54.9014 27.331 55.4364 27.331ZM63.114 29V18.0909H65.5714V19.9446H65.6992C65.9265 19.3196 66.3029 18.8319 66.8285 18.4815C67.354 18.1264 67.9814 17.9489 68.7106 17.9489C69.4492 17.9489 70.0719 18.1288 70.5785 18.4886C71.0898 18.8437 71.4497 19.3291 71.658 19.9446H71.7717C72.0131 19.3385 72.4203 18.8556 72.9933 18.4957C73.5709 18.1312 74.2551 17.9489 75.0458 17.9489C76.0496 17.9489 76.8687 18.2661 77.5032 18.9006C78.1377 19.535 78.4549 20.4607 78.4549 21.6776V29H75.8768V22.0753C75.8768 21.3982 75.6969 20.9034 75.337 20.5909C74.9772 20.2737 74.5368 20.1151 74.016 20.1151C73.3957 20.1151 72.9104 20.3092 72.56 20.6974C72.2144 21.081 72.0415 21.5805 72.0415 22.196V29H69.5202V21.9688C69.5202 21.4053 69.3498 20.9555 69.0089 20.6193C68.6727 20.2831 68.2324 20.1151 67.6879 20.1151C67.3185 20.1151 66.9824 20.2098 66.6793 20.3991C66.3763 20.5838 66.1348 20.8466 65.9549 21.1875C65.775 21.5237 65.685 21.9167 65.685 22.3665V29H63.114ZM82.647 29.1562C82.2161 29.1562 81.8468 29.0047 81.5391 28.7017C81.2313 28.3987 81.0798 28.0294 81.0845 27.5938C81.0798 27.1676 81.2313 26.803 81.5391 26.5C81.8468 26.197 82.2161 26.0455 82.647 26.0455C83.0637 26.0455 83.4259 26.197 83.7337 26.5C84.0462 26.803 84.2048 27.1676 84.2095 27.5938C84.2048 27.8826 84.129 28.1454 83.9822 28.3821C83.8402 28.6188 83.6508 28.8082 83.4141 28.9503C83.1821 29.0876 82.9264 29.1562 82.647 29.1562ZM82.647 21.3722C82.2161 21.3722 81.8468 21.2206 81.5391 20.9176C81.2313 20.6098 81.0798 20.2405 81.0845 19.8097C81.0798 19.3835 81.2313 19.0189 81.5391 18.7159C81.8468 18.4081 82.2161 18.2543 82.647 18.2543C83.0637 18.2543 83.4259 18.4081 83.7337 18.7159C84.0462 19.0189 84.2048 19.3835 84.2095 19.8097C84.2048 20.0937 84.129 20.3542 83.9822 20.5909C83.8402 20.8277 83.6508 21.017 83.4141 21.1591C83.1821 21.3011 82.9264 21.3722 82.647 21.3722Z" fill="white"/>
<path d="M96.9659 16.017V14.4545H107.875V16.017H103.301V29H101.54V16.017H96.9659ZM113.216 29.2273C112.231 29.2273 111.367 28.9929 110.624 28.5241C109.885 28.0554 109.307 27.3996 108.891 26.5568C108.479 25.714 108.273 24.7292 108.273 23.6023C108.273 22.4659 108.479 21.474 108.891 20.6264C109.307 19.7789 109.885 19.1207 110.624 18.652C111.367 18.1832 112.231 17.9489 113.216 17.9489C114.201 17.9489 115.063 18.1832 115.801 18.652C116.545 19.1207 117.122 19.7789 117.534 20.6264C117.951 21.474 118.159 22.4659 118.159 23.6023C118.159 24.7292 117.951 25.714 117.534 26.5568C117.122 27.3996 116.545 28.0554 115.801 28.5241C115.063 28.9929 114.201 29.2273 113.216 29.2273ZM113.216 27.7216C113.964 27.7216 114.58 27.5298 115.062 27.1463C115.545 26.7628 115.903 26.2585 116.135 25.6335C116.367 25.0085 116.483 24.3314 116.483 23.6023C116.483 22.8731 116.367 22.1937 116.135 21.5639C115.903 20.9342 115.545 20.4252 115.062 20.0369C114.58 19.6487 113.964 19.4545 113.216 19.4545C112.468 19.4545 111.852 19.6487 111.369 20.0369C110.886 20.4252 110.529 20.9342 110.297 21.5639C110.065 22.1937 109.949 22.8731 109.949 23.6023C109.949 24.3314 110.065 25.0085 110.297 25.6335C110.529 26.2585 110.886 26.7628 111.369 27.1463C111.852 27.5298 112.468 27.7216 113.216 27.7216ZM125.462 18.0909V19.5114H119.809V18.0909H125.462ZM121.456 15.4773H123.132V25.875C123.132 26.3485 123.201 26.7036 123.338 26.9403C123.48 27.1723 123.66 27.3286 123.878 27.4091C124.101 27.4848 124.335 27.5227 124.581 27.5227C124.766 27.5227 124.917 27.5133 125.036 27.4943C125.154 27.4706 125.249 27.4517 125.32 27.4375L125.661 28.9432C125.547 28.9858 125.389 29.0284 125.185 29.071C124.981 29.1184 124.723 29.142 124.411 29.142C123.937 29.142 123.473 29.0402 123.019 28.8366C122.569 28.633 122.195 28.3229 121.897 27.9062C121.603 27.4896 121.456 26.964 121.456 26.3295V15.4773ZM131.194 29.2557C130.502 29.2557 129.875 29.1255 129.311 28.8651C128.748 28.5999 128.301 28.2188 127.969 27.7216C127.638 27.2197 127.472 26.6136 127.472 25.9034C127.472 25.2784 127.595 24.7718 127.841 24.3835C128.087 23.9905 128.417 23.6828 128.828 23.4602C129.24 23.2377 129.695 23.072 130.192 22.9631C130.694 22.8494 131.198 22.7595 131.705 22.6932C132.368 22.608 132.905 22.544 133.317 22.5014C133.734 22.4541 134.037 22.3759 134.226 22.267C134.42 22.1581 134.517 21.9687 134.517 21.6989V21.642C134.517 20.9413 134.326 20.3968 133.942 20.0085C133.563 19.6203 132.988 19.4261 132.216 19.4261C131.416 19.4261 130.789 19.6013 130.334 19.9517C129.88 20.3021 129.56 20.6761 129.375 21.0739L127.784 20.5057C128.069 19.8428 128.447 19.3267 128.921 18.9574C129.399 18.5833 129.92 18.3229 130.483 18.1761C131.051 18.0246 131.61 17.9489 132.159 17.9489C132.51 17.9489 132.912 17.9915 133.367 18.0767C133.826 18.1572 134.269 18.3253 134.695 18.581C135.126 18.8366 135.483 19.2225 135.767 19.7386C136.051 20.2547 136.194 20.946 136.194 21.8125V29H134.517V27.5227H134.432C134.319 27.7595 134.129 28.0128 133.864 28.2827C133.599 28.5526 133.246 28.7822 132.806 28.9716C132.365 29.161 131.828 29.2557 131.194 29.2557ZM131.449 27.75C132.112 27.75 132.671 27.6198 133.125 27.3594C133.585 27.099 133.93 26.7628 134.162 26.3509C134.399 25.9389 134.517 25.5057 134.517 25.0511V23.517C134.446 23.6023 134.29 23.6804 134.049 23.7514C133.812 23.8177 133.537 23.8769 133.225 23.929C132.917 23.9763 132.616 24.0189 132.323 24.0568C132.034 24.09 131.8 24.1184 131.62 24.142C131.184 24.1989 130.777 24.2912 130.398 24.419C130.024 24.5421 129.721 24.7292 129.489 24.9801C129.262 25.2263 129.148 25.5625 129.148 25.9886C129.148 26.571 129.364 27.0114 129.794 27.3097C130.23 27.6032 130.782 27.75 131.449 27.75ZM142.463 29.2557C141.772 29.2557 141.144 29.1255 140.581 28.8651C140.018 28.5999 139.57 28.2188 139.239 27.7216C138.907 27.2197 138.741 26.6136 138.741 25.9034C138.741 25.2784 138.865 24.7718 139.111 24.3835C139.357 23.9905 139.686 23.6828 140.098 23.4602C140.51 23.2377 140.964 23.072 141.462 22.9631C141.964 22.8494 142.468 22.7595 142.974 22.6932C143.637 22.608 144.175 22.544 144.587 22.5014C145.003 22.4541 145.306 22.3759 145.496 22.267C145.69 22.1581 145.787 21.9687 145.787 21.6989V21.642C145.787 20.9413 145.595 20.3968 145.212 20.0085C144.833 19.6203 144.258 19.4261 143.486 19.4261C142.686 19.4261 142.058 19.6013 141.604 19.9517C141.149 20.3021 140.83 20.6761 140.645 21.0739L139.054 20.5057C139.338 19.8428 139.717 19.3267 140.19 18.9574C140.669 18.5833 141.189 18.3229 141.753 18.1761C142.321 18.0246 142.88 17.9489 143.429 17.9489C143.779 17.9489 144.182 17.9915 144.636 18.0767C145.096 18.1572 145.538 18.3253 145.964 18.581C146.395 18.8366 146.753 19.2225 147.037 19.7386C147.321 20.2547 147.463 20.946 147.463 21.8125V29H145.787V27.5227H145.702C145.588 27.7595 145.399 28.0128 145.134 28.2827C144.868 28.5526 144.516 28.7822 144.075 28.9716C143.635 29.161 143.098 29.2557 142.463 29.2557ZM142.719 27.75C143.382 27.75 143.94 27.6198 144.395 27.3594C144.854 27.099 145.2 26.7628 145.432 26.3509C145.669 25.9389 145.787 25.5057 145.787 25.0511V23.517C145.716 23.6023 145.56 23.6804 145.318 23.7514C145.081 23.8177 144.807 23.8769 144.494 23.929C144.187 23.9763 143.886 24.0189 143.592 24.0568C143.304 24.09 143.069 24.1184 142.889 24.142C142.454 24.1989 142.046 24.2912 141.668 24.419C141.294 24.5421 140.991 24.7292 140.759 24.9801C140.531 25.2263 140.418 25.5625 140.418 25.9886C140.418 26.571 140.633 27.0114 141.064 27.3097C141.5 27.6032 142.051 27.75 142.719 27.75ZM152.199 14.4545V29H150.522V14.4545H152.199ZM164.104 29.2557C163.412 29.2557 162.785 29.1255 162.222 28.8651C161.658 28.5999 161.211 28.2188 160.879 27.7216C160.548 27.2197 160.382 26.6136 160.382 25.9034C160.382 25.2784 160.505 24.7718 160.751 24.3835C160.998 23.9905 161.327 23.6828 161.739 23.4602C162.151 23.2377 162.605 23.072 163.102 22.9631C163.604 22.8494 164.108 22.7595 164.615 22.6932C165.278 22.608 165.815 22.544 166.227 22.5014C166.644 22.4541 166.947 22.3759 167.136 22.267C167.33 22.1581 167.428 21.9687 167.428 21.6989V21.642C167.428 20.9413 167.236 20.3968 166.852 20.0085C166.473 19.6203 165.898 19.4261 165.126 19.4261C164.326 19.4261 163.699 19.6013 163.244 19.9517C162.79 20.3021 162.47 20.6761 162.286 21.0739L160.695 20.5057C160.979 19.8428 161.357 19.3267 161.831 18.9574C162.309 18.5833 162.83 18.3229 163.393 18.1761C163.962 18.0246 164.52 17.9489 165.07 17.9489C165.42 17.9489 165.822 17.9915 166.277 18.0767C166.736 18.1572 167.179 18.3253 167.605 18.581C168.036 18.8366 168.393 19.2225 168.678 19.7386C168.962 20.2547 169.104 20.946 169.104 21.8125V29H167.428V27.5227H167.342C167.229 27.7595 167.039 28.0128 166.774 28.2827C166.509 28.5526 166.156 28.7822 165.716 28.9716C165.276 29.161 164.738 29.2557 164.104 29.2557ZM164.359 27.75C165.022 27.75 165.581 27.6198 166.036 27.3594C166.495 27.099 166.84 26.7628 167.072 26.3509C167.309 25.9389 167.428 25.5057 167.428 25.0511V23.517C167.357 23.6023 167.2 23.6804 166.959 23.7514C166.722 23.8177 166.447 23.8769 166.135 23.929C165.827 23.9763 165.527 24.0189 165.233 24.0568C164.944 24.09 164.71 24.1184 164.53 24.142C164.094 24.1989 163.687 24.2912 163.308 24.419C162.934 24.5421 162.631 24.7292 162.399 24.9801C162.172 25.2263 162.058 25.5625 162.058 25.9886C162.058 26.571 162.274 27.0114 162.705 27.3097C163.14 27.6032 163.692 27.75 164.359 27.75ZM175.373 29.2557C174.682 29.2557 174.055 29.1255 173.491 28.8651C172.928 28.5999 172.48 28.2188 172.149 27.7216C171.817 27.2197 171.652 26.6136 171.652 25.9034C171.652 25.2784 171.775 24.7718 172.021 24.3835C172.267 23.9905 172.596 23.6828 173.008 23.4602C173.42 23.2377 173.875 23.072 174.372 22.9631C174.874 22.8494 175.378 22.7595 175.885 22.6932C176.547 22.608 177.085 22.544 177.497 22.5014C177.913 22.4541 178.217 22.3759 178.406 22.267C178.6 22.1581 178.697 21.9687 178.697 21.6989V21.642C178.697 20.9413 178.505 20.3968 178.122 20.0085C177.743 19.6203 177.168 19.4261 176.396 19.4261C175.596 19.4261 174.968 19.6013 174.514 19.9517C174.059 20.3021 173.74 20.6761 173.555 21.0739L171.964 20.5057C172.248 19.8428 172.627 19.3267 173.1 18.9574C173.579 18.5833 174.1 18.3229 174.663 18.1761C175.231 18.0246 175.79 17.9489 176.339 17.9489C176.69 17.9489 177.092 17.9915 177.547 18.0767C178.006 18.1572 178.449 18.3253 178.875 18.581C179.306 18.8366 179.663 19.2225 179.947 19.7386C180.231 20.2547 180.373 20.946 180.373 21.8125V29H178.697V27.5227H178.612C178.498 27.7595 178.309 28.0128 178.044 28.2827C177.779 28.5526 177.426 28.7822 176.985 28.9716C176.545 29.161 176.008 29.2557 175.373 29.2557ZM175.629 27.75C176.292 27.75 176.85 27.6198 177.305 27.3594C177.764 27.099 178.11 26.7628 178.342 26.3509C178.579 25.9389 178.697 25.5057 178.697 25.0511V23.517C178.626 23.6023 178.47 23.6804 178.228 23.7514C177.992 23.8177 177.717 23.8769 177.404 23.929C177.097 23.9763 176.796 24.0189 176.502 24.0568C176.214 24.09 175.979 24.1184 175.799 24.142C175.364 24.1989 174.957 24.2912 174.578 24.419C174.204 24.5421 173.901 24.7292 173.669 24.9801C173.441 25.2263 173.328 25.5625 173.328 25.9886C173.328 26.571 173.543 27.0114 173.974 27.3097C174.41 27.6032 174.961 27.75 175.629 27.75ZM185.109 22.4375V29H183.433V18.0909H185.052V19.7955H185.194C185.45 19.2415 185.838 18.7964 186.359 18.4602C186.879 18.1193 187.552 17.9489 188.376 17.9489C189.114 17.9489 189.761 18.1004 190.315 18.4034C190.869 18.7017 191.299 19.1562 191.607 19.767C191.915 20.3731 192.069 21.1402 192.069 22.0682V29H190.393V22.1818C190.393 21.3248 190.17 20.6572 189.725 20.179C189.28 19.696 188.669 19.4545 187.893 19.4545C187.358 19.4545 186.879 19.5705 186.458 19.8026C186.041 20.0346 185.712 20.3731 185.471 20.8182C185.229 21.2633 185.109 21.803 185.109 22.4375ZM199.876 18.0909V19.5114H194.223V18.0909H199.876ZM195.87 15.4773H197.547V25.875C197.547 26.3485 197.615 26.7036 197.752 26.9403C197.895 27.1723 198.074 27.3286 198.292 27.4091C198.515 27.4848 198.749 27.5227 198.995 27.5227C199.18 27.5227 199.332 27.5133 199.45 27.4943C199.568 27.4706 199.663 27.4517 199.734 27.4375L200.075 28.9432C199.961 28.9858 199.803 29.0284 199.599 29.071C199.395 29.1184 199.137 29.142 198.825 29.142C198.351 29.142 197.887 29.0402 197.433 28.8366C196.983 28.633 196.609 28.3229 196.311 27.9062C196.017 27.4896 195.87 26.964 195.87 26.3295V15.4773ZM205.608 29.2557C204.916 29.2557 204.289 29.1255 203.725 28.8651C203.162 28.5999 202.715 28.2188 202.383 27.7216C202.052 27.2197 201.886 26.6136 201.886 25.9034C201.886 25.2784 202.009 24.7718 202.255 24.3835C202.502 23.9905 202.831 23.6828 203.243 23.4602C203.654 23.2377 204.109 23.072 204.606 22.9631C205.108 22.8494 205.612 22.7595 206.119 22.6932C206.782 22.608 207.319 22.544 207.731 22.5014C208.148 22.4541 208.451 22.3759 208.64 22.267C208.834 22.1581 208.931 21.9687 208.931 21.6989V21.642C208.931 20.9413 208.74 20.3968 208.356 20.0085C207.977 19.6203 207.402 19.4261 206.63 19.4261C205.83 19.4261 205.203 19.6013 204.748 19.9517C204.294 20.3021 203.974 20.6761 203.789 21.0739L202.199 20.5057C202.483 19.8428 202.861 19.3267 203.335 18.9574C203.813 18.5833 204.334 18.3229 204.897 18.1761C205.466 18.0246 206.024 17.9489 206.574 17.9489C206.924 17.9489 207.326 17.9915 207.781 18.0767C208.24 18.1572 208.683 18.3253 209.109 18.581C209.54 18.8366 209.897 19.2225 210.181 19.7386C210.466 20.2547 210.608 20.946 210.608 21.8125V29H208.931V27.5227H208.846C208.733 27.7595 208.543 28.0128 208.278 28.2827C208.013 28.5526 207.66 28.7822 207.22 28.9716C206.779 29.161 206.242 29.2557 205.608 29.2557ZM205.863 27.75C206.526 27.75 207.085 27.6198 207.539 27.3594C207.999 27.099 208.344 26.7628 208.576 26.3509C208.813 25.9389 208.931 25.5057 208.931 25.0511V23.517C208.86 23.6023 208.704 23.6804 208.463 23.7514C208.226 23.8177 207.951 23.8769 207.639 23.929C207.331 23.9763 207.03 24.0189 206.737 24.0568C206.448 24.09 206.214 24.1184 206.034 24.142C205.598 24.1989 205.191 24.2912 204.812 24.419C204.438 24.5421 204.135 24.7292 203.903 24.9801C203.676 25.2263 203.562 25.5625 203.562 25.9886C203.562 26.571 203.778 27.0114 204.208 27.3097C204.644 27.6032 205.196 27.75 205.863 27.75ZM215.343 14.4545V29H213.667V14.4545H215.343Z" fill="white"/>
</g>
<path d="M789 61H1107C1118.05 61 1127 69.9543 1127 81V115C1127 126.046 1118.05 135 1107 135H789V61Z" fill="#EDEDED"/>
<path d="M4 81C4 69.9543 12.9543 61 24 61H789V135H24C12.9543 135 4 126.046 4 115V81Z" fill="#00A9F3"/>
<path d="M371.463 105.199C370.407 105.199 369.47 105.021 368.651 104.666C367.836 104.311 367.197 103.826 366.733 103.21C366.274 102.59 366.046 101.887 366.051 101.101C366.046 100.49 366.179 99.929 366.449 99.4176C366.719 98.9062 367.083 98.4801 367.543 98.1392C368.007 97.7936 368.523 97.5734 369.091 97.4787V97.3793C368.343 97.2135 367.737 96.8324 367.273 96.2358C366.813 95.6345 366.586 94.9408 366.591 94.1548C366.586 93.4067 366.795 92.7391 367.216 92.152C367.637 91.5649 368.215 91.1032 368.949 90.767C369.683 90.4261 370.521 90.2557 371.463 90.2557C372.396 90.2557 373.227 90.4261 373.956 90.767C374.69 91.1032 375.268 91.5649 375.689 92.152C376.115 92.7391 376.328 93.4067 376.328 94.1548C376.328 94.9408 376.094 95.6345 375.625 96.2358C375.161 96.8324 374.562 97.2135 373.828 97.3793V97.4787C374.396 97.5734 374.908 97.7936 375.362 98.1392C375.821 98.4801 376.186 98.9062 376.456 99.4176C376.731 99.929 376.868 100.49 376.868 101.101C376.868 101.887 376.636 102.59 376.172 103.21C375.708 103.826 375.069 104.311 374.254 104.666C373.445 105.021 372.514 105.199 371.463 105.199ZM371.463 103.168C372.008 103.168 372.481 103.075 372.884 102.891C373.286 102.701 373.598 102.436 373.821 102.095C374.044 101.754 374.157 101.361 374.162 100.916C374.157 100.452 374.036 100.043 373.8 99.6875C373.568 99.3277 373.248 99.0459 372.841 98.8423C372.438 98.6387 371.979 98.5369 371.463 98.5369C370.942 98.5369 370.478 98.6387 370.071 98.8423C369.664 99.0459 369.342 99.3277 369.105 99.6875C368.873 100.043 368.759 100.452 368.764 100.916C368.759 101.361 368.868 101.754 369.091 102.095C369.313 102.431 369.626 102.694 370.028 102.884C370.436 103.073 370.914 103.168 371.463 103.168ZM371.463 96.5412C371.908 96.5412 372.301 96.4512 372.642 96.2713C372.988 96.0914 373.26 95.8404 373.459 95.5185C373.658 95.1965 373.759 94.8248 373.764 94.4034C373.759 93.9867 373.66 93.6222 373.466 93.3097C373.272 92.9924 373.002 92.7486 372.656 92.5781C372.311 92.4029 371.913 92.3153 371.463 92.3153C371.004 92.3153 370.599 92.4029 370.249 92.5781C369.903 92.7486 369.633 92.9924 369.439 93.3097C369.25 93.6222 369.157 93.9867 369.162 94.4034C369.157 94.8248 369.252 95.1965 369.446 95.5185C369.645 95.8357 369.917 96.0866 370.263 96.2713C370.613 96.4512 371.013 96.5412 371.463 96.5412ZM384.26 105.199C383.313 105.199 382.465 105.021 381.717 104.666C380.969 104.306 380.375 103.814 379.934 103.189C379.499 102.564 379.267 101.849 379.238 101.044H381.795C381.842 101.641 382.1 102.128 382.569 102.507C383.038 102.881 383.601 103.068 384.26 103.068C384.776 103.068 385.235 102.95 385.637 102.713C386.04 102.476 386.357 102.147 386.589 101.726C386.821 101.304 386.935 100.824 386.93 100.284C386.935 99.7348 386.819 99.2472 386.582 98.821C386.345 98.3949 386.021 98.0611 385.609 97.8196C385.197 97.5734 384.724 97.4503 384.189 97.4503C383.753 97.4455 383.324 97.526 382.903 97.6918C382.482 97.8575 382.148 98.0753 381.902 98.3452L379.522 97.9545L380.282 90.4545H388.72V92.6562H382.463L382.044 96.5128H382.129C382.399 96.1955 382.78 95.9328 383.272 95.7244C383.765 95.5114 384.305 95.4048 384.892 95.4048C385.772 95.4048 386.558 95.6132 387.25 96.0298C387.941 96.4418 388.485 97.0099 388.883 97.7344C389.281 98.4588 389.48 99.2874 389.48 100.22C389.48 101.181 389.257 102.038 388.812 102.791C388.372 103.539 387.759 104.129 386.973 104.56C386.191 104.986 385.287 105.199 384.26 105.199ZM397.235 105.277C396.066 105.277 395.062 104.981 394.224 104.389C393.391 103.793 392.749 102.933 392.299 101.811C391.854 100.684 391.632 99.3277 391.632 97.7415C391.636 96.1553 391.861 94.8059 392.306 93.6932C392.756 92.5758 393.398 91.7235 394.231 91.1364C395.069 90.5492 396.071 90.2557 397.235 90.2557C398.4 90.2557 399.402 90.5492 400.24 91.1364C401.078 91.7235 401.719 92.5758 402.164 93.6932C402.614 94.8106 402.839 96.16 402.839 97.7415C402.839 99.3324 402.614 100.691 402.164 101.818C401.719 102.94 401.078 103.797 400.24 104.389C399.406 104.981 398.405 105.277 397.235 105.277ZM397.235 103.054C398.145 103.054 398.862 102.607 399.387 101.712C399.918 100.812 400.183 99.4886 400.183 97.7415C400.183 96.5862 400.062 95.6155 399.821 94.8295C399.579 94.0436 399.238 93.4517 398.798 93.054C398.358 92.6515 397.837 92.4503 397.235 92.4503C396.331 92.4503 395.616 92.9001 395.091 93.7997C394.565 94.6946 394.3 96.0085 394.295 97.7415C394.29 98.9015 394.406 99.8769 394.643 100.668C394.885 101.458 395.225 102.055 395.666 102.457C396.106 102.855 396.629 103.054 397.235 103.054ZM410.575 105.277C409.406 105.277 408.402 104.981 407.564 104.389C406.731 103.793 406.089 102.933 405.639 101.811C405.194 100.684 404.972 99.3277 404.972 97.7415C404.976 96.1553 405.201 94.8059 405.646 93.6932C406.096 92.5758 406.738 91.7235 407.571 91.1364C408.409 90.5492 409.411 90.2557 410.575 90.2557C411.74 90.2557 412.741 90.5492 413.58 91.1364C414.418 91.7235 415.059 92.5758 415.504 93.6932C415.954 94.8106 416.179 96.16 416.179 97.7415C416.179 99.3324 415.954 100.691 415.504 101.818C415.059 102.94 414.418 103.797 413.58 104.389C412.746 104.981 411.745 105.277 410.575 105.277ZM410.575 103.054C411.484 103.054 412.202 102.607 412.727 101.712C413.258 100.812 413.523 99.4886 413.523 97.7415C413.523 96.5862 413.402 95.6155 413.161 94.8295C412.919 94.0436 412.578 93.4517 412.138 93.054C411.697 92.6515 411.177 92.4503 410.575 92.4503C409.671 92.4503 408.956 92.9001 408.43 93.7997C407.905 94.6946 407.64 96.0085 407.635 97.7415C407.63 98.9015 407.746 99.8769 407.983 100.668C408.224 101.458 408.565 102.055 409.006 102.457C409.446 102.855 409.969 103.054 410.575 103.054Z" fill="white"/>
<path d="M934.933 96.669V98.7855H928.385V96.669H934.933ZM943.525 90.4545V105H940.89V93.0185H940.805L937.403 95.1918V92.777L941.018 90.4545H943.525ZM952.275 105.199C951.328 105.199 950.481 105.021 949.733 104.666C948.984 104.306 948.39 103.814 947.95 103.189C947.514 102.564 947.282 101.849 947.254 101.044H949.811C949.858 101.641 950.116 102.128 950.585 102.507C951.054 102.881 951.617 103.068 952.275 103.068C952.791 103.068 953.251 102.95 953.653 102.713C954.056 102.476 954.373 102.147 954.605 101.726C954.837 101.304 954.95 100.824 954.946 100.284C954.95 99.7348 954.834 99.2472 954.598 98.821C954.361 98.3949 954.037 98.0611 953.625 97.8196C953.213 97.5734 952.739 97.4503 952.204 97.4503C951.769 97.4455 951.34 97.526 950.919 97.6918C950.497 97.8575 950.163 98.0753 949.917 98.3452L947.538 97.9545L948.298 90.4545H956.735V92.6562H950.478L950.059 96.5128H950.145C950.414 96.1955 950.796 95.9328 951.288 95.7244C951.78 95.5114 952.32 95.4048 952.907 95.4048C953.788 95.4048 954.574 95.6132 955.265 96.0298C955.957 96.4418 956.501 97.0099 956.899 97.7344C957.297 98.4588 957.495 99.2874 957.495 100.22C957.495 101.181 957.273 102.038 956.828 102.791C956.387 103.539 955.774 104.129 954.988 104.56C954.207 104.986 953.303 105.199 952.275 105.199ZM965.251 105.277C964.082 105.277 963.078 104.981 962.24 104.389C961.406 103.793 960.765 102.933 960.315 101.811C959.87 100.684 959.647 99.3277 959.647 97.7415C959.652 96.1553 959.877 94.8059 960.322 93.6932C960.772 92.5758 961.413 91.7235 962.247 91.1364C963.085 90.5492 964.086 90.2557 965.251 90.2557C966.416 90.2557 967.417 90.5492 968.255 91.1364C969.093 91.7235 969.735 92.5758 970.18 93.6932C970.63 94.8106 970.855 96.16 970.855 97.7415C970.855 99.3324 970.63 100.691 970.18 101.818C969.735 102.94 969.093 103.797 968.255 104.389C967.422 104.981 966.421 105.277 965.251 105.277ZM965.251 103.054C966.16 103.054 966.877 102.607 967.403 101.712C967.933 100.812 968.199 99.4886 968.199 97.7415C968.199 96.5862 968.078 95.6155 967.836 94.8295C967.595 94.0436 967.254 93.4517 966.814 93.054C966.373 92.6515 965.852 92.4503 965.251 92.4503C964.347 92.4503 963.632 92.9001 963.106 93.7997C962.581 94.6946 962.315 96.0085 962.311 97.7415C962.306 98.9015 962.422 99.8769 962.659 100.668C962.9 101.458 963.241 102.055 963.681 102.457C964.122 102.855 964.645 103.054 965.251 103.054ZM978.591 105.277C977.421 105.277 976.418 104.981 975.58 104.389C974.746 103.793 974.105 102.933 973.655 101.811C973.21 100.684 972.987 99.3277 972.987 97.7415C972.992 96.1553 973.217 94.8059 973.662 93.6932C974.112 92.5758 974.753 91.7235 975.587 91.1364C976.425 90.5492 977.426 90.2557 978.591 90.2557C979.756 90.2557 980.757 90.5492 981.595 91.1364C982.433 91.7235 983.075 92.5758 983.52 93.6932C983.97 94.8106 984.195 96.16 984.195 97.7415C984.195 99.3324 983.97 100.691 983.52 101.818C983.075 102.94 982.433 103.797 981.595 104.389C980.762 104.981 979.76 105.277 978.591 105.277ZM978.591 103.054C979.5 103.054 980.217 102.607 980.743 101.712C981.273 100.812 981.538 99.4886 981.538 97.7415C981.538 96.5862 981.418 95.6155 981.176 94.8295C980.935 94.0436 980.594 93.4517 980.153 93.054C979.713 92.6515 979.192 92.4503 978.591 92.4503C977.687 92.4503 976.972 92.9001 976.446 93.7997C975.92 94.6946 975.655 96.0085 975.651 97.7415C975.646 98.9015 975.762 99.8769 975.999 100.668C976.24 101.458 976.581 102.055 977.021 102.457C977.462 102.855 977.985 103.054 978.591 103.054Z" fill="#D54242"/>
<defs>
<filter id="filter0_d_701_4145" x="0" y="0" width="1131" height="52" filterUnits="userSpaceOnUse" color-interpolation-filters="sRGB">
<feFlood flood-opacity="0" result="BackgroundImageFix"/>
<feColorMatrix in="SourceAlpha" type="matrix" values="0 0 0 0 0 0 0 0 0 0 0 0 0 0 0 0 0 0 127 0" result="hardAlpha"/>
<feOffset dy="4"/>
<feGaussianBlur stdDeviation="2"/>
<feComposite in2="hardAlpha" operator="out"/>
<feColorMatrix type="matrix" values="0 0 0 0 0 0 0 0 0 0 0 0 0 0 0 0 0 0 0.25 0"/>
<feBlend mode="normal" in2="BackgroundImageFix" result="effect1_dropShadow_701_4145"/>
<feBlend mode="normal" in="SourceGraphic" in2="effect1_dropShadow_701_4145" result="shape"/>
</filter>
<clipPath id="clip0_701_4145">
<rect width="1123" height="44" fill="white" transform="translate(4)"/>
</clipPath>
</defs>
</svg>
